<?xml version="1.0" standalone="no"?>
<!DOCTYPE svg PUBLIC "-//W3C//DTD SVG 1.1//EN" "http://www.w3.org/Graphics/SVG/1.1/DTD/svg11.dtd" >
<svg xmlns="http://www.w3.org/2000/svg" xmlns:xlink="http://www.w3.org/1999/xlink" version="1.1">
<metadata>
Created by FontForge 20190801 at Thu Jan 16 22:11:16 2014
 By Jimmy Wärting
PeaxWebdesign
</metadata>
<defs>
<font id="PWSchoolScript" horiz-adv-x="439" >
  <font-face 
    font-family="PWSchoolScript"
    font-weight="500"
    font-stretch="normal"
    units-per-em="1000"
    panose-1="3 0 6 3 0 0 0 0 0 0"
    ascent="800"
    descent="-200"
    x-height="703"
    cap-height="760"
    bbox="-29.7778 -283.421 654 889.315"
    underline-thickness="50"
    underline-position="-150"
    unicode-range="U+0020-3000"
  />
<missing-glyph horiz-adv-x="364" 
d="M66 33h199v600h-199v-600zM33 0v666h265v-666h-265z" />
    <glyph glyph-name=".notdef" horiz-adv-x="364" 
d="M66 33h199v600h-199v-600zM33 0v666h265v-666h-265z" />
    <glyph glyph-name=".null" horiz-adv-x="0" 
 />
    <glyph glyph-name="nonmarkingreturn" horiz-adv-x="333" 
 />
    <glyph glyph-name="space" unicode=" " horiz-adv-x="641" 
d="M654 0h-654v12h654v-12zM650 173h-647v4h647v-4zM2 523v4h646v-4h-646zM0 699v4h646v-4h-646zM1 350v4h647v-4h-647z" />
    <glyph glyph-name="exclam" unicode="!" 
d="M1 350v4l180 -1q9 52 20 130l5 40h-204v4h205q16 117 25 172h-232v4h233q5 30 9 57q3 12 12.5 19t21.5 4.5t19 -12t5 -21.5l-8 -47h159v-4h-160l-26 -173h185v-4h-185l-7 -47q-10 -72 -18 -123l211 -1v-4l-212 1q-14 -83 -29 -150q-3 -17 -20 -22l260 -1v-4l-447 2v4
l171 -1q-11 4 -17 13.5t-3 20.5q14 63 27 139zM205 55l-6 -33q-2 -6 -5 -11l258 -1v-12l-274 1q-6 -2 -13 -1q-2 1 -4 1l-161 1v12l146 -1q-7 10 -5 21l6 33q3 12 12.5 19t21.5 4.5t19 -12t5 -21.5z" />
    <glyph glyph-name="quotedbl" unicode="&#x22;" 
d="M452 -2l-452 2v12l452 -2v-12zM450 171l-447 2v4l447 -2v-4zM255 699h-83q-32 -104 -40 -172h77q15 84 46 172zM0 699v4h113l16 53q4 11 15 16.5t22 2t16.5 -14.5t2.5 -22l-12 -35h83l13 34q4 12 15 16.5t22.5 0.5t16 -15t0.5 -22l-5 -14h133v-4h-135q-32 -89 -48 -173
h182v-4h-183q-6 -30 -9 -59q-2 -12 -11.5 -19.5t-21 -6t-19 11t-6.5 20.5q3 27 8 54h-77q-1 -19 -2 -36q0 -12 -9 -20t-21 -8t-20 9t-8 21l2 34h-71v4h72q7 72 37 172h-111zM1 350v4l450 -3v-4z" />
    <glyph glyph-name="numbersign" unicode="#" horiz-adv-x="641" 
d="M441 699h-129q2 -7 0 -15q-12 -62 -34 -157h119zM395 518l1 5h-119l-7 -33q71 18 125 28zM380 456q-51 -10 -124 -29l-17 -73h116zM337 269l17 81h-116l-23 -119l83 26zM324 204l-9 -2l-80 -25h84zM205 168q-12 -75 -16 -143q-1 -7 -4 -13h108q9 76 25 161h-96zM1 350v4
h179l12 57l-68 -17q-12 -3 -22 3t-13 18t3 22t18 13l97 25l11 48h-216v4h217l37 169v3h-256v4h258q10 20 32 15q14 -2 20 -15h132l17 67q3 12 13 18t22 3t18 -13t3 -22l-13 -53h144v-4h-145l-43 -170q61 10 115 13q19 1 27 -15h48v-4h-46q2 -4 2 -8q1 -12 -7 -21t-20 -10
q-63 -3 -135 -16l-27 -114h233v-4h-234l-14 -64q48 12 90 20q12 2 22 -5t12 -19t-5 -22t-19 -12q-56 -9 -114 -25l-8 -46h272v-4h-273q-16 -85 -26 -161h303v-12h-304q-2 -12 -11.5 -19t-21.5 -6q-9 1 -16 8t-9 17h-121q-6 -2 -13 -2q-4 0 -9 2h-149v12h135q-5 8 -4 17
q4 58 13 121l-16 -4q-11 -3 -21.5 3t-13.5 18q-1 3 -1 6h-89v4h89q2 20 22 25l39 11q10 62 26 137h-178z" />
    <glyph glyph-name="dollar" unicode="$" 
d="M212 353l4 37q12 107 14 132l-104 1q-8 -25 -10 -51q-2 -20 -2 -32q-1 -19 1 -23q11 -38 54 -64h43zM242 661q-39 -17 -69.5 -52.5t-45.5 -81.5l103 -1q5 48 12 135zM209 332l2 17h-35q14 -8 33 -17zM231 23q48 5 84 25q42 23 46 56q6 40 -5 67l-109 1q-11 -86 -16 -149z
M257 249l-10 -73l107 -1q-5 12 -14 22q-23 27 -83 52zM357 664q-27 10 -55 10l-13 -148h161v-4h-162q-7 -77 -14 -138l-4 -32l181 -1v-4l-181 1l-5 -39l14 -6q73 -31 105 -68q23 -26 32 -60h34v-4h-33q8 -34 2 -75q-7 -50 -55 -86h88v-12h-107l-2 -1q-51 -28 -116 -33
q-2 -30 -3 -59q0 -12 -9 -20t-21 -8t-20 9t-8 21q1 28 3 59q-47 6 -80 27q-5 3 -9 7h-80v12h66q-38 38 -33 94q1 12 10.5 20t21 7t19.5 -10.5t7 -20.5q-3 -39 29 -60q21 -13 53 -18q5 63 16 148l-186 1v4l186 -1l12 96q-35 15 -57 28q-37 22 -58 49l-85 1v4l82 -1
q-16 21 -24 46q-4 14 -3 43q0 12 2 34q2 24 8 47h-64v4h65q14 53 46 98.5t76 73.5h-189v4h195q26 15 53 22l5 59q1 12 10.5 19.5t21.5 6.5t19.5 -10.5t6.5 -21.5l-4 -46q35 -1 70 -14q11 -4 16 -15h58v-4h-56q2 -9 -1 -18q-4 -11 -15 -16t-22 -1z" />
    <glyph glyph-name="percent" unicode="%" horiz-adv-x="641" 
d="M507 173h-56q-31 -40 -49 -75q-27 -52 -18 -71q6 -16 35 -15q34 1 52 17l4 6l12 16l16 24q9 19 10.5 46t-6.5 52zM155 523h-48q6 -4 17 -7q18 -3 23 0q4 2 8 7zM457 699h-230q4 -11 7 -23q12 -55 -1 -115q-4 -18 -10 -34h138zM456 218q15 -18 1 -37l-3 -4h52
q-14 41 -50 41zM346 116q-12 -3 -23 4q-10 7 -12 19t5 22l9 12h-96q-45 -87 -70 -161h168q-12 41 19 104zM1 350v4h262l57 98l39 71h-138q-16 -40 -44 -57q-24 -15 -65 -6q-53 10 -68 56q-1 4 -2 7h-40v4h39q-7 30 4 71q7 24 20 52l-4 2q-9 8 -10.5 19.5t5.5 21.5l5 6h-61v4
h64q56 67 106 55q37 -8 56 -55h233l25 42q6 10 18 13t22 -3t13 -18t-3 -22l-7 -12h119v-4h-122l-97 -172h221v-4h-223l-55 -99l-40 -70h318v-4h-320q-69 -118 -97 -173h96l9 13q14 20 26 34q40 46 81 51q46 5 76.5 -19.5t42.5 -63.5q2 -8 4 -15h84v-4h-83q14 -67 -12 -122
q-3 -8 -20 -32l-5 -7h124v-12h-132q-8 -11 -13 -15q-34 -29 -88 -31q-65 -2 -89 46h-177q-5 -15 -9 -29q-3 -12 -14 -17.5t-22.5 -2.5t-17 14t-2.5 22l4 13h-94v12h98q24 75 66 161h-161v4h163q33 65 95 173h-260zM157 693q-40 -52 -56 -110q-8 -31 -2 -48q1 -5 4 -8h55
q12 17 18 46q10 48 1 91q-6 26 -16 35h-1q-1 -3 -3 -6z" />
    <glyph glyph-name="ampersand" unicode="&#x26;" horiz-adv-x="641" 
d="M324 173q-36 -46 -78 -83q-30 -26 -82 -55q-28 -16 -49 -23h393q-16 20 -40 53q-45 65 -63 86l-19 22h-62zM280 703h16q-4 1 -10 1q-3 0 -6 -1zM266 699q-12 -4 -24 -11q-25 -15 -46 -35.5t-26 -31.5q-10 -22 0 -72q1 -10 6 -22h70q32 59 47 100q11 30 13 50q1 15 -2 20
l-2 2h-36zM310 255l-68 76l-16 19h-16l-32 -50l-30 -48l-18 -28q-2 -3 -12 -20l-16 -27h149q33 36 59 78zM351 211l-24 -34h55zM217 362l-5 -8h11zM249 414l37 -45l13 -15h61q31 77 36 153q1 9 6 16h-92q-15 -28 -34 -62zM83 64q4 0 9 2q17 4 43 19q47 26 73 49q21 18 40 39
h-148q-12 -23 -19 -41q-16 -46 2 -68zM340 308q10 21 19 42h-56zM212 465l14 24l18 34h-66q11 -25 34 -58zM1 350v4h143l35 56q-49 67 -63 113h-114v4h113q-1 6 -3 12q-12 67 4 104q11 26 44 56h-160v4h165q23 20 48 35q38 22 70 24q45 3 69 -33q8 -11 10 -26h284v-4h-283
q2 -13 0 -28q-2 -27 -16 -63q-12 -36 -35 -81h94q9 8 21 7q10 -1 17 -7h204v-4h-200q7 -9 6 -20q-5 -74 -32 -149h226v-4h-227q-16 -45 -39 -87q52 -56 67 -74l10 -12h191v-4h-188q15 -19 54 -74q38 -55 65 -81l4 -6h69v-12h-65q1 -14 -8 -24q-9 -8 -21 -8t-21 8l-21 24
h-518v12h55q-5 3 -9 7q-50 49 -20 132q4 11 9 22h-32v4h34q7 14 43 77q3 5 61 96h-140z" />
    <glyph glyph-name="quotesingle" unicode="'" 
d="M452 -2l-452 2v12l452 -2v-12zM450 171l-447 2v4l447 -2v-4zM0 699v4h178l18 42q5 11 16 15t22.5 -0.5t15.5 -15.5t0 -23l-8 -18h209v-4h-211q-52 -119 -72 -172l282 -1v-4l-283 1q-22 -60 -36 -115q-3 -12 -13 -18t-22 -3t-18 13t-3 22q11 47 30 101h-103v4h105
q22 62 70 172h-177zM1 350v4l450 -3v-4z" />
    <glyph glyph-name="parenleft" unicode="(" 
d="M1 350v4l87 -1q12 87 38 170h-124v4h125q31 98 74 172h-201v4h204q10 17 20 32q7 9 19 11.5t22 -4.5q9 -7 11.5 -18t-3.5 -21h178v-4h-181q-48 -69 -82 -172l262 -1v-4l-263 1q-28 -83 -40 -170l304 -2v-4l-305 2q-2 -11 -3 -23q-9 -79 -5 -150l312 -1v-4l-312 1
q7 -93 36 -161l278 -1v-12l-273 1q12 -24 27 -44q7 -10 5 -21.5t-12 -19t-21.5 -5.5t-19.5 12q-25 35 -42 78l-116 1v12h112q-26 71 -32 161h-77v4h77q-4 74 5 156l2 16z" />
    <glyph glyph-name="parenright" unicode=")" 
d="M1 350v4l237 -2q-6 81 -33 171h-203v4h202q-24 76 -65 168l-2 4h-137v4h136q-3 21 17 30q11 5 22 1t16 -15l8 -16h252v-4h-251q41 -93 64 -173h186v-4h-185q26 -88 31 -170l155 -1v-4l-155 1q6 -89 -11 -172l165 -1v-4l-166 1l-2 -7q-13 -61 -51 -154l221 -1v-12l-226 1
l-28 -69q-4 -11 -15 -15.5t-22.5 -0.5t-16 15t-0.5 23l19 47l-163 1v12l168 -1q43 105 56 161l-221 1v4l222 -1l1 1q18 83 12 171z" />
    <glyph glyph-name="asterisk" unicode="*" 
d="M452 -2l-452 2v12l452 -2v-12zM450 171l-447 2v4l447 -2v-4zM164 659q2 21 4 40h-46q19 -17 42 -40zM145 536l-47 -9h40zM220 632q32 37 62 67h-56q-4 -31 -6 -67zM0 699v4h39q-1 12 6 22q8 9 20 10.5t21 -5.5q15 -12 32 -27h50l4 29q2 11 12 18.5t21.5 5.5t19 -12
t5.5 -22q-2 -9 -3 -19h59q25 24 50 44q9 7 21 5.5t20 -10.5q7 -9 6 -20t-9 -19h77v-4h-82q-37 -30 -75 -71q41 8 76 12q11 1 20.5 -6.5t11 -19t-6 -21t-19.5 -11.5q-48 -6 -115 -20q22 -20 42 -36h147v-4h-141q17 -13 35 -23q10 -6 13 -17.5t-3 -22t-17.5 -13.5t-22.5 3
q-46 28 -96 73q0 -71 -2 -108q-1 -12 -9.5 -20.5t-20.5 -7.5t-20.5 9.5t-7.5 20.5q1 19 1 41l-39 -57q-7 -10 -18.5 -12.5t-21.5 4.5t-12.5 18.5t4.5 21.5l63 91h-58q-14 -3 -28 -5q-11 -1 -20 5h-27v4h22q-6 7 -8 16q-1 12 6 21.5t19 11.5q43 6 104 20q-59 60 -95 88
q-7 6 -10 15h-40zM1 350v4l450 -3v-4z" />
    <glyph glyph-name="plus" unicode="+" 
d="M0 699v4h451v-4h-451zM1 350v4l205 -1q-2 96 10 170h-214v4h215q2 12 5 23q2 12 12 18.5t22 4t18.5 -12.5t3.5 -22l-2 -12h174v-4h-175q-13 -72 -12 -170l188 -1v-4l-187 1q0 -18 1 -37q76 24 120 33q12 3 22 -3.5t12.5 -18.5t-4 -22t-18.5 -12q-44 -10 -129 -37
q2 -31 6 -75l176 -1v-4l-176 1q10 -112 11 -134q1 -18 -15 -27l182 -1v-12l-452 2v12l241 -1q-13 8 -14 23q-1 9 -11 138l-213 1v4l212 -1q-2 32 -4 58q-96 -29 -166 -34q-12 -1 -21 7t-10 20t7 21t20 10q64 4 166 35q-1 29 -1 56z" />
    <glyph glyph-name="comma" unicode="," 
d="M115 -1l-115 1v12l120 -1q11 35 16 68q2 12 11.5 19t21.5 5.5t19 -11t6 -21.5q-5 -30 -14 -60l272 -1v-12l-275 1q-10 -28 -47 -115q-5 -11 -16.5 -15t-22.5 0.5t-15 16t0 22.5q33 74 39 91zM450 171l-447 2v4l447 -2v-4zM2 523v4l448 -1v-4zM0 699v4h451v-4h-451zM1 350
v4l450 -3v-4z" />
    <glyph glyph-name="hyphen" unicode="-" 
d="M452 -2l-452 2v12l452 -2v-12zM450 171l-447 2v4l447 -2v-4zM2 523v4l448 -1v-4zM0 699v4h451v-4h-451zM1 350v4l450 -3v-4zM66 319q16 1 141 16q89 10 147 10q12 0 20.5 -8.5t8.5 -20.5t-8.5 -20.5t-20.5 -8.5q-50 0 -140 -10l-144 -16q-12 -1 -21 7t-10 20t7 21t20 10z
" />
    <glyph glyph-name="period" unicode="." 
d="M452 -2l-452 2v12l452 -2v-12zM450 171l-447 2v4l447 -2v-4zM2 523v4l448 -1v-4zM0 699v4h451v-4h-451zM1 350v4l450 -3v-4zM130 50q0 -12 -8.5 -20.5t-20.5 -8.5t-20.5 8.5t-8.5 20.5t8.5 20.5t20.5 8.5t20.5 -8.5t8.5 -20.5z" />
    <glyph glyph-name="slash" unicode="/" 
d="M1 350v4l171 -1l21 48l52 121l-243 1v4l244 -1q41 98 64 173h-310v4h311q8 27 15 53q3 12 13.5 18t22 3t17.5 -13.5t3 -21.5q-6 -22 -11 -39h80v-4h-81q-22 -77 -61 -173h141v-4h-143l-61 -144l-11 -26l216 -1v-4l-217 1q-46 -105 -70 -172l286 -1v-4l-288 1
q-30 -81 -47 -152q-1 -5 -3 -8l340 -2v-12l-356 2q-8 -3 -16 -1q-1 0 -3 1h-77v12h62q-6 10 -3 22q16 66 42 139h-98v4h99q25 70 69 172z" />
    <glyph glyph-name="zero" unicode="0" 
d="M319 172l-213 1q13 -51 30 -82q28 -51 65 -49q40 2 75 49q24 32 43 81zM266 699h-25q-81 -38 -123 -172l228 -1q-22 105 -80 173zM358 352q6 89 -11 170l-230 1q-5 -16 -9 -33q-16 -65 -20 -137zM358 348l-270 1q-4 -88 11 -151l5 -21l217 -1l5 13q26 74 32 159zM259 707
q-2 -2 -5 -2l-4 -2h13zM1 350v4h29q4 78 21 149q3 10 5 20h-54v4h55q31 110 89 172h-146v4h149q36 37 80 54q2 7 6 12q8 9 20 10t21 -7q34 -30 60 -69h115v-4h-113q48 -74 68 -173h44v-4h-43q15 -82 9 -171h35v-4h-35q-7 -92 -34 -172h68v-4h-69l-1 -2q-23 -66 -58 -113
q-21 -28 -45 -45l175 -1v-12l-194 1q-26 -13 -53 -15q-35 -2 -63 15l-142 1v12l125 -1q-23 20 -40 52q-22 41 -39 110h-43v4h42l-2 7q-17 70 -13 166h-29z" />
    <glyph glyph-name="one" unicode="1" 
d="M261 642l-14 -17l-84 -98l79 -1v4q0 3 19 108v4zM1 350v4l220 -1q9 67 20 169l-81 1l-54 -60q-8 -9 -20 -9t-21 8t-9 20t8 21l18 20h-80v4h84l117 136l31 36h-234v4h237l9 11l24 27l11 9q4 4 8 6q5 3 11 3q16 1 25 -11q3 -3 5 -7t2 -7v-2v-6q0 -3 -0.5 -8.5t-1.5 -14.5
h121v-4h-122v-4l-11 -66l-8 -42l-6 -40l-4 -21h150v-4h-150l-20 -170l171 -1v-4l-172 1l-15 -108l-11 -64l197 -1v-4l-198 1q-19 -106 -20 -160v-1l220 -1v-12l-224 1q-8 -15 -26 -15q-17 0 -25 15l-177 1v12l174 -1v3q1 57 19 158l-190 1v4l191 -1l12 72q8 48 15 101z" />
    <glyph glyph-name="two" unicode="2" 
d="M250 703h70q-9 13 -27 12.5t-43 -12.5zM242 699q-15 -8 -31 -20q-48 -35 -83 -84q-28 -39 -33 -68l194 -1q17 34 27 65q21 62 12 94q-2 8 -5 14h-81zM1 350v4l188 -1q37 57 64 104l34 65l-193 1v-6q0 -12 -8.5 -20.5t-20.5 -8.5t-20.5 8.5t-8.5 20.5v6h-34v4h34
q5 46 45 102q27 37 63 70h-144v4h149l28 23q63 46 114 48q33 1 57.5 -17t34.5 -54h68v-4h-67q14 -49 -13 -127q-8 -22 -18 -46h97v-4h-99q-18 -39 -48 -93q-22 -39 -46 -77l194 -1v-4l-196 1l-103 -154l-11 -18l309 -1v-4l-312 1q-26 -40 -40 -71q-13 -31 -13 -46
q49 -5 131 31q8 4 34 16t39.5 17.5t35.5 13.5t40 11q12 3 22 -3.5t12.5 -18.5t-4 -22t-18.5 -12q-15 -4 -34 -10.5t-31 -11.5t-37 -16.5t-35 -16.5q-33 -14 -57 -22l269 -1v-12l-315 1q-30 -5 -58 -2q-7 1 -13 3h-66v12h44q-2 2 -4 5q-13 15 -13 37q-1 28 18 71q10 22 25 48
h-67v4h70q8 15 31 49l82 123z" />
    <glyph glyph-name="three" unicode="3" 
d="M198 699q-19 -16 -38 -37q-59 -68 -85 -135l160 -1q30 44 47 82q24 52 24 91h-108zM299 737q-1 1 -6 2q-38 8 -91 -36h103q0 18 -6 34zM1 350v4l133 -1q-2 3 -3 6q-3 6 -3 12t1 9l1 3q1 3 4 7q2 5 8 13l22 30l16 19l14 18q5 6 6 8q19 24 33 44l-159 1q-2 -7 -4 -12
q-3 -12 -13.5 -18t-21.5 -3t-17.5 12.5t-4.5 20.5h-11v4h12q10 36 38 83.5t64 88.5h-116v4h119q98 110 184 94q37 -7 49 -37q11 -26 12 -57h87v-4h-87q0 -52 -29 -116q-13 -27 -31 -57h146v-4h-148q-22 -35 -56 -80q-1 -1 -6 -8l-14 -18l-16 -19l-13 -17h4q9 0 30 3
q27 3 39 4q54 3 87 -18q11 -7 21 -18h73v-4h-70q24 -29 32 -80q6 -44 -15 -92h52v-4h-53q-33 -72 -109 -125q-30 -21 -63 -35l227 -1v-12l-261 1q-58 -16 -104 1h-87v12h63q-9 5 -17 12q-9 8 -10 20t7 21t20 10t21 -7q26 -24 73 -17t97 42q49 34 77 79l-328 1v4l330 -1
q28 45 22 83q-7 46 -29 61q-17 11 -53 9q-10 -1 -35 -4t-36 -3q-47 -1 -66 27z" />
    <glyph glyph-name="four" unicode="4" 
d="M313 260q3 44 8 88l-143 1l-26 -54q-5 -11 -34 -79l-13 -31q25 6 68 21q46 16 136 53q2 1 4 1zM309 196l-51 -20h51v20zM1 350v4l115 -1q58 122 83 170h-197v4h200q53 101 105 172h-307v4h310l32 41q7 9 19 10t21.5 -6.5t10.5 -19.5t-7 -22l-3 -3h68v-4h-71
q-56 -70 -113 -173h183v-4h-185q-31 -56 -85 -169l141 -1l4 34q2 12 11.5 19.5t21 6t19 -11t6.5 -20.5l-3 -29h71v-4h-72q-9 -87 -12 -172h83v-4h-84q-3 -82 0 -161h86v-12h-85q0 -21 2 -45q1 -12 -7 -21t-20 -10t-21 7t-10 20q-2 25 -3 50l-308 1v12l308 -1q-3 78 0 161
h-60q-28 -11 -56 -21q-51 -18 -82 -24q-20 -4 -34 -3q-27 1 -38 21q-3 6 -3 13v5q1 2 1 5q1 1 2 5h-35v4h36l6 14l19 48q27 64 36 82l14 28z" />
    <glyph glyph-name="five" unicode="5" 
d="M162 353l208 -1q-16 54 -47 64q-32 11 -88 -18q-29 -15 -73 -45zM1 350v4h25q1 11 3 24q7 43 11 60q4 21 10 60l3 25h-51v4h51q4 23 6 38q5 28 12 50q-11 -3 -20.5 2.5t-13.5 16.5q-3 11 2 22t17 15l46 15q3 5 7 9q1 2 3 4h-112v4h117q15 9 30 0h4q141 49 218 69
q11 3 21.5 -3t13.5 -17.5t-3 -22t-18 -13.5l-46 -13h114v-4h-127q-54 -16 -182 -61q-16 -31 -25 -83q-3 -13 -5 -28l338 -1v-4l-339 1l-4 -32q-6 -42 -11 -65q-3 -15 -9 -55l12 9q76 53 110 70q78 40 132 21q65 -22 90 -120h20v-4h-19l2 -12q16 -78 -11 -160h27v-4h-28
q-37 -104 -123 -160l153 -1v-12l-173 1q-75 -41 -142 -40q-61 1 -97 41h-40v12h31q-12 17 -19 38q-3 12 2.5 22.5t17 14t22 -2t14.5 -16.5q16 -50 70 -51q52 -1 115 33q71 39 106 121l-356 2v4l358 -2q31 76 17 148l-6 25l-216 1l-24 -17q-29 -20 -43 -27q-11 -7 -21 -9
q-17 -4 -31 4q-5 3 -8.5 8t-4.5 8l-1 3v6v6q0 5 1 13l1 6h-24z" />
    <glyph glyph-name="six" unicode="6" 
d="M342 171l-249 2q-1 -48 4 -78q8 -57 35 -68q31 -11 53.5 -6.5t50.5 26.5q67 51 106 124zM197 353l172 -1q-13 44 -50 52q-24 5 -57 -7.5t-65 -43.5zM111 342l5 7h-4zM94 187q-1 -6 -1 -10l251 -2q26 50 30 99q4 44 -4 74l-177 1q-11 -11 -21 -23q-41 -50 -78 -139z
M358 670q-114 18 -190 -143l282 -1v-4l-283 1l-7 -16q-29 -68 -47 -154h6l9 11q45 54 99.5 80.5t103.5 16.5q39 -8 63.5 -36.5t34.5 -73.5h22v-4h-22q7 -36 3 -79q-4 -46 -24 -93h42v-4h-44q-40 -92 -122 -160l168 -1v-12l-183 1q-25 -19 -48 -28.5t-51.5 -9.5t-59.5 12
q-21 9 -37 27h-73v12h65q-19 28 -26 75q-5 35 -4 86h-32v4h32q0 4 1 9q-2 6 0 12v4q2 66 17 148h-52v4h53q19 93 50 169h-102v4h103l1 3q51 120 126 169h-232v4h238q59 36 128 25q10 -2 16.5 -9t8.5 -16h60v-4h-60v-4q-2 -12 -12 -19.5t-21 -5.5z" />
    <glyph glyph-name="seven" unicode="7" 
d="M381 695h1h-1zM60 716q106 -11 243 18q3 1 17 5l22 6q16 4 26 6q7 1 12 2q12 0 21 -5q11 -7 16 -19t0 -24v-2h34v-4h-36q-4 -8 -13 -19l-19 -20q-12 -13 -20 -23q-24 -33 -62 -110v-1h149v-4h-151q-27 -54 -71 -170l223 -1v-4l-225 2l-24 -62l-44 -111l292 -1v-4l-294 1
q-31 -83 -46 -148q-1 -7 -6 -12l348 -2v-12l-452 2v12h59q-8 11 -5 24q13 62 40 137h-91v4h93q5 15 52 132l16 40l-163 1v4l165 -1q48 126 69 169l-233 1v4l234 -1l13 27q40 81 68 118l6 9q-5 -2 -8 -2q-145 -32 -261 -20q-12 1 -19.5 10.5t-6.5 21.5q1 5 3 9h-31v4h33
q10 15 27 13z" />
    <glyph glyph-name="eight" unicode="8" 
d="M325 172l-244 1q-29 -49 -16 -76t66 -36q57 -10 114 5q54 14 65 36q19 34 15 70zM386 681q-41 14 -83 18h-64q-62 -8 -109 -34q-36 -19 -48 -43q-13 -23 0 -53q9 -20 27 -42l227 -1q59 72 50 150v5zM221 413l1 1l30 28l30 28q11 10 26 25l25 27l-221 1q19 -23 49 -53z
M221 333q-86 -82 -128 -142q-6 -7 -10 -14l242 -1q-8 60 -89 142zM1 350v4l157 -1l21 20l-59 56q-55 54 -79 94h-39v4h37q-5 9 -9 18q-26 56 0 104q15 28 45 50h-75v4h81q9 7 21 13q40 22 89.5 33.5t86.5 9.5q75 -3 144 -30q18 -7 19 -26h10v-4h-10q0 -3 -1 -5q3 -5 4 -12
q9 -82 -37 -156h43v-4h-45q-14 -21 -34 -44t-32 -35t-41.5 -38.5t-34.5 -31.5l15 -14l6 -7l167 -1v-4l-163 1q88 -94 95 -173h67v-4h-66q3 -49 -22 -97q-23 -43 -98 -63l188 -1v-12l-269 1h-21l-162 1v12h89q-56 18 -76 59q-22 44 3 102h-13v4h14q11 23 28 48q40 56 109 124
z" />
    <glyph glyph-name="nine" unicode="9" 
d="M128 527l250 -1q2 51 -4 87q-6 35 -20 52q-12 15 -33 14q-72 -4 -140 -78q-30 -33 -53 -74zM307 348l-227 1q3 -24 14 -39q30 -43 124 -15q33 10 89 53zM358 386q10 48 16 98q3 18 4 38l-253 1q-23 -42 -35 -84q-14 -48 -10 -86l232 -1q33 25 46 34zM1 350v4h21
q-3 46 12 101q10 34 26 68h-58v4h60q31 63 76 113q33 36 69 59h-207v4h213q52 31 104 34q50 3 81 -34h53v-4h-50q21 -28 30 -75q7 -43 5 -98h14v-4h-14q-1 -22 -4 -46q-8 -65 -23 -125h42v-4h-43q-22 -91 -57 -161l-5 -11h104v-4h-106q-61 -113 -151 -160l259 -1v-12l-285 1
q-21 -8 -44 -13q-21 -5 -31 14h-92v12h88q-1 10 5.5 19t17.5 11q99 22 166 130l-274 1v4l276 -1q11 17 20 36q19 37 34 82q-59 -43 -99 -55q-134 -39 -188 38q-20 30 -24 73h-21z" />
    <glyph glyph-name="colon" unicode=":" 
d="M450 171l-447 2v4l447 -2v-4zM2 523v4l448 -1v-4zM0 699v4h451v-4h-451zM1 350v4l450 -3v-4zM215 426l-14 -31q-5 -11 -16 -15t-22 1t-15 16t1 22l14 31q5 11 16 15t22 -1t15 -16t-1 -22zM200 51l2 -31q0 -5 -1 -9l251 -1v-12l-257 1q-8 -9 -20 -10q-15 -1 -24 10l-151 1
v12l145 -1q-1 3 -1 5l-2 31q-1 12 7 21t20 10t21 -7t10 -20z" />
    <glyph glyph-name="semicolon" unicode=";" 
d="M450 171l-447 2v4l447 -2v-4zM217 479q20 12 36 -5q8 -9 8 -21t-9 -20l-24 -23l-7 -7q-5 -4 -8 -6q-1 -1 -2.5 -2t-6.5 -2t-10 0q-16 2 -23 18q-3 7 -2 15l4 11q2 3 5 7l15 22q9 13 24 13zM2 523v4l448 -1v-4zM0 699v4h451v-4h-451zM1 350v4l450 -3v-4zM268 72
q1 -37 -2 -61l186 -1v-12l-188 1q-3 -17 -8 -33q-12 -33 -53 -92q-7 -10 -19 -12t-22 5t-12 19t5 22q37 51 46 77l4 14l-205 1v12l207 -1q4 22 3 59q0 12 8 21t20 9t21 -8t9 -20z" />
    <glyph glyph-name="less" unicode="&#x3c;" 
d="M0 699v4h451v-4h-451zM1 350v4l139 -1l18 24q60 80 102 145l-258 1v4l261 -1q46 70 79 134q6 11 17.5 14.5t22 -2t14 -17t-1.5 -21.5q-28 -53 -62 -108h118v-4h-121q-48 -76 -117 -169l239 -2v-4l-242 2l-5 -6q-33 -45 -51 -66q-5 -6 -16 -15l1 -1q8 -13 23 -34l41 -51
l248 -1v-4l-245 1l35 -42l103 -120h109v-12h-98l23 -23q8 -8 9 -20t-7.5 -20.5t-20.5 -9.5t-21 8q-14 13 -61 66l-276 1v12l265 -1l-69 81l-66 80l-127 1v4l124 -1l-12 16q-17 23 -27 38q-5 9 -8 15q-6 12 -5 22q2 20 21 37q4 3 7 5.5t4 3t2 2.5q18 21 28 34z" />
    <glyph glyph-name="equal" unicode="=" 
d="M452 -2l-452 2v12l452 -2v-12zM364 171q-7 -11 -19 -13q-40 -8 -83.5 -23.5t-72.5 -28.5t-80 -38q-11 -5 -22.5 -1t-16.5 14.5t-1 22t14 16.5q74 36 113 52l-193 1v4l203 -1q67 27 127 38q12 3 22 -4t12 -18q2 -9 -1 -17h84v-4h-86zM2 523v4l448 -1v-4zM0 699v4h451v-4
h-451zM1 350v4l450 -3v-4zM69 427q192 40 309 43q12 0 21 -8t9 -20t-8 -21t-20 -9q-112 -3 -299 -41q-12 -3 -22 3.5t-12.5 18.5t4 22t18.5 12z" />
    <glyph glyph-name="greater" unicode="&#x3e;" 
d="M0 699v4h451v-4h-451zM1 350v4l254 -2l-56 60l-109 111h-88v4h84q-25 25 -32 33q-8 9 -7 21t10 20t21 7t20 -10q9 -10 69 -71l283 -1v-4l-279 1l69 -71q62 -64 85 -90l9 -10l117 -1v-4l-114 1q11 -12 17 -20l9 -14q7 -12 6 -23q0 -8 -6 -17q-2 -4 -6 -9q-5 -9 -15 -21
l-8 -10l-6 -7q-2 -3 -3.5 -5.5t-2.5 -3.5l-1 -1l-25 -41l154 -1v-4l-156 1q-30 -54 -83 -161l241 -1v-12l-246 1l-27 -54q-5 -11 -16.5 -14.5t-22.5 1.5t-14.5 16.5t1.5 22.5l14 28l-141 1v12l147 -1q57 117 81 161l-225 1v4l227 -1q21 39 41 71q1 2 5 7l10 13q6 8 10 12
l11 15q-9 11 -25 29l-23 25z" />
    <glyph glyph-name="question" unicode="?" 
d="M218 703h92q-9 21 -29 22q-25 0 -63 -22zM216 31q9 -8 9 -20l227 -1v-12l-229 1l-2 -4q-21 -34 -31 -43q-5 -6 -12 -8q-8 -4 -17 -2q-12 2 -19 13q-6 8 -6 19q1 4 2 9q1 7 5 16l-143 1v12l147 -1q7 18 14 31q6 11 17.5 14.5t21.5 -1.5q15 -8 16 -24zM47 561v6l-1 10
q-2 17 3 30q14 41 69 92h-118v4h122q31 28 63 48q55 33 99 31q60 -2 82 -64q3 -8 5 -15h80v-4h-79q20 -76 -19 -173h97v-4h-99q-16 -38 -51 -99l-41 -71l192 -1v-4l-194 1q-65 -111 -76 -172l269 -1v-4l-270 1q-1 -5 -1 -10q-2 -12 -11 -19.5t-21 -6t-19.5 10.5t-6.5 21
q0 2 1 4l-119 1v4l119 -1q10 69 68 173l-189 1v4l191 -1l58 98q23 41 37 71l-285 1v4l287 -1q47 103 23 172l-1 1h-99q-38 -24 -69.5 -57.5t-39.5 -54.5v-5q1 -2 1 -4v-2v-3q1 -7 1 -12q0 -12 -8.5 -20.5t-20.5 -8.5t-20.5 8.5t-8.5 20.5z" />
    <glyph glyph-name="at" unicode="@" horiz-adv-x="641" 
d="M347 703h166q-35 44 -104 29q-28 -7 -62 -29zM341 699q-16 -11 -36 -27q-76 -64 -129 -145h191q15 11 26 15q14 5 33 4l12 -1q4 -1 7 -1q19 0 26 -17h80v16q3 100 -32 152l-3 4h-175zM213 354q3 6 7 13q18 32 54 72q32 36 65 65q12 11 23 19h-188q-37 -57 -57 -116
q-8 -26 -13 -53h109zM510 350h-80q-2 -14 -3 -24q-3 -30 3 -39l2 -1q1 -1 8 -1.5t19 2.5q25 6 51 63zM266 331q10 7 23 19h-12q-4 -6 -7 -12q-2 -3 -4 -7zM1 350v4h44q6 37 18 71q16 50 43 98h-104v4h106q54 95 140 172h-248v4h253l16 13q71 60 128 72q113 26 170 -61
q8 -11 14 -24h65v-4h-63q28 -63 26 -157v-15h39v-4h-39q-6 -90 -35 -169h74v-4h-75l-1 -3q-41 -102 -99 -116q-64 -15 -91 23q-18 26 -13 78q1 8 3 18h-3l-31 -34q-31 -31 -55 -42q-19 -9 -36 -7q-22 3 -36 22q-12 18 -6 43q2 8 6 18h-108q-17 -95 7 -173h540v-4h-539l8 -20
q52 -118 195 -90q11 3 21.5 6.5t25 9.5t26 10t22 -1t14.5 -16.5t-1 -22t-16 -14.5l-26 -11q-21 -8 -34 -12h308v-12h-386h-11h-257v12h187q-81 29 -121 118q-9 21 -15 43h-48v4h47q-21 80 -6 173h-43zM445 486q-6 0 -14 1h-3q-2 0 -3.5 0.5t-3.5 0.5q-6 1 -8 0
q-8 -3 -36 -28q-31 -27 -60 -60q-22 -25 -37 -46h13l4 3l21 24q12 13 20 23l16 20q8 10 10 12l1 3q5 9 6 11q5 10 13 15q9 7 21 6q11 0 21 -9q13 -12 14 -36q1 -13 -2 -33q-1 -8 -4 -21q-2 -15 -3 -18h81l6 14q27 71 32 155h-77q1 -4 1 -8q0 -12 -8.5 -20.5t-20.5 -8.5z" />
    <glyph glyph-name="A" unicode="A" horiz-adv-x="641" 
d="M201 354h194q-32 81 -61 169h-82zM435 260q-121 -36 -219 -83h258zM294 649l-3 -11q-25 -73 -33 -98l-4 -13h79l-11 32l-27 89zM160 216q111 58 251 100l-14 34h-197zM133 132q-26 -77 -35 -120h467q-47 78 -89 161h-268q-40 -19 -75 -41zM1 350v4h138l51 169h-188v4h189
l9 31l34 100l14 41h-248v4h250l5 15q5 14 8 21q1 4 3 7l2 4q1 3 3 5q8 10 23 10q13 0 22 -9q3 -3 5 -7q2 -3 5 -8q3 -7 7 -20l7 -18h306v-4h-305l11 -32l28 -90l16 -50h252v-4h-251q29 -88 63 -169h188v-4h-186l7 -18l7 2q12 3 23 -3t14 -18t-2.5 -22.5t-17.5 -14.5
q23 -50 48 -99h109v-4h-107q40 -78 85 -150q4 -5 5 -11h21v-12h-22q-3 -12 -13.5 -18.5t-22.5 -3.5t-18 13l-6 9h-476l-1 -6q-3 -13 -13 -20t-22 -5q-11 2 -18 11t-7 20h-35v12h37q8 42 26 99q-4 3 -7 7q-7 11 -4.5 23t12.5 19l19 12v1h-80v4h81q11 31 16 50l38 123h-137z
" />
    <glyph glyph-name="B" unicode="B" horiz-adv-x="641" 
d="M126 639q-1 -30 6 -112h285l35 29q28 26 31 37q4 18 -3 30q-8 12 -28 21q-45 21 -135 20q-79 -1 -162 -18q-15 -4 -29 -7zM550 310q-7 6 -29 11q-47 9 -218 -18l-71 -11l-44 -8q-26 -5 -38 -6h-2q4 -55 7 -101h247q41 28 82 61q50 41 62 62q4 6 4 10zM236 407
q100 62 141 91l35 25h-280q1 -15 2 -27l9 -142h2q1 0 1 1l71 42q9 6 13 8q1 0 2 1q2 1 4 1zM1 350v4h82l-9 138q-1 12 -2 31h-70v4h69q-5 63 -5 92q-7 -3 -11 -6q-10 -7 -22.5 -4.5t-19.5 12.5t-4.5 22.5t12.5 19.5q16 11 48 22q1 5 1 10q1 2 1 4h-71v4h72q10 21 32 18
q17 -3 23 -18h9l7 1q88 19 174 20q94 1 151 -21h178v-4h-169q37 -17 54 -45q20 -33 10 -75q-5 -23 -33 -52h140v-4h-144l-11 -11q-31 -28 -82 -63q-45 -32 -140 -90l22 3q182 29 240 17q38 -7 58 -25h57v-4h-53q5 -6 9 -13q16 -30 -6 -67q-18 -31 -76 -78l-18 -15h146v-4
h-152q-133 -103 -286 -161h442v-12h-475l-14 -5q-15 -4 -27 5h-138v12h129q-1 1 -2 3q-3 12 2.5 23t17.5 15q131 42 249 120h-240l8 -88q1 -12 -7 -22t-20 -11t-22 7t-11 20q-4 44 -8 94h-93v4h92q-6 70 -12 173h-82z" />
    <glyph glyph-name="C" unicode="C" horiz-adv-x="641" 
d="M542 173h-447q-19 -95 16 -134q14 -16 39 -22t72 3q46 9 107 37q27 13 56 28l51 27l55 32zM580 672q-64 0 -134 -37t-137 -100l-8 -8h347v-4h-351q-78 -78 -132 -169h483v-4h-486q-24 -41 -38 -79q-20 -51 -28 -94h454l5 3q18 10 34 -3h61v-4h-57q2 -2 3 -4
q6 -11 2.5 -23t-13.5 -18q-21 -11 -65 -37l-80 -45l-66 -34h280v-12h-305q-203 -92 -284 -1v1h-65v12h56q-39 58 -22 161h-31v4h32q9 53 33 116q11 27 26 57h-93v4h95q46 87 118 169h-212v4h216q24 27 49 51q86 81 173 121h-440v4h449q68 29 131 29q12 0 21 -8.5t9 -20.5h36
v-4h-36q-1 -11 -9.5 -19t-20.5 -8z" />
    <glyph glyph-name="D" unicode="D" horiz-adv-x="641" 
d="M449 354q45 78 47 135q0 18 -3 34h-321q9 -54 12 -94q3 -33 5 -75h260zM447 350h-258q1 -16 5 -78l5 -95h116q63 70 105 130q15 22 27 43zM208 68q58 56 103 105h-112q4 -54 9 -99v-6zM138 666q13 -8 15 -22q3 -21 9.5 -61.5t9.5 -55.5h320q-15 53 -82 87q-77 39 -167 49
q-49 6 -105 3zM41 716q117 17 208 7q51 -6 98 -20h299v-4h-286q40 -13 76 -31q101 -51 117 -141h95v-4h-94q2 -17 2 -36q-2 -60 -39 -133h131v-4h-133q-18 -37 -46 -76q-31 -46 -74 -97h255v-4h-259q-63 -74 -155 -161h418v-12h-430l-64 -59q-9 -8 -21 -8t-20.5 9.5
t-8.5 21.5t10 21l16 15h-136v12h149l31 29q-12 -1 -21 7t-11 20q-5 46 -9 105h-136v4h136l-5 92q-4 60 -5 81h-128v4h128q-2 39 -5 71q-3 41 -12 98h-110v4h109q-1 9 -8 48t-10 61q-2 16 11 27q-26 -2 -53 -7q-13 -2 -23 5.5t-12 19.5q-1 10 3 18h-19v4h21q8 11 20 13z" />
    <glyph glyph-name="E" unicode="E" horiz-adv-x="641" 
d="M133 337l30 13h-30v-2v-11zM136 687q19 5 42 12h-45q3 -6 3 -12zM1 350v4h72q0 8 1.5 72t1.5 97h-74v4h75v99q-6 6 -8 15q-4 15 7 27v16q0 8 3 15h-79v4h82q9 12 23 12q16 0 25 -12h61l92 29q123 36 206 36q12 0 21 -9t9 -21t-9 -21t-21 -9q-31 0 -66 -5h223v-4h-246
q-42 -8 -100 -25l-50 -16l-62 -18q-27 -9 -51 -15q0 -44 -1 -98h512v-4h-512q0 -25 -0.5 -53.5t-1.5 -62.5t-1 -53h40l113 46q40 16 105.5 34t120.5 23q12 1 21.5 -7t10.5 -20.5t-7 -22t-21 -10.5q-79 -7 -181 -43h313v-4h-324q-38 -14 -108 -43l-84 -35q-1 -52 0 -95h518
v-4h-518q1 -68 5 -127q166 74 354 105q12 2 22.5 -5.5t12.5 -19.5t-5.5 -22.5t-19.5 -12.5q-154 -26 -290 -79h443v-12h-472q-38 -16 -74 -34q-11 -5 -22.5 -1.5t-17.5 15.5q-5 9 -2 20h-66v12h72q3 4 7 6q-6 71 -7 155h-69v4h69q-1 38 0 82q-11 5 -15 16t0.5 22t14.5 16
q1 17 1 36v1h-72z" />
    <glyph glyph-name="F" unicode="F" horiz-adv-x="641" 
d="M75 296l151 54h-150v-20q0 -18 -1 -34zM1 350v4h15q3 140 4 169h-18v4h18v80q-3 5 -4 10q-1 10 4 19q-1 16 -1 30q0 13 8.5 22t21 9t21.5 -8.5t9 -20.5v-10q36 7 184 41h-263v4h281q177 40 286 40q12 0 21 -9t9 -21q0 -5 -2 -10h51v-4h-52q-9 -16 -27 -16
q-73 0 -152.5 -14t-178.5 -38t-156 -34v-70h568v-4h-568q-1 -32 -4 -169h162q172 58 293 68q12 1 21.5 -7t10.5 -20.5t-7 -22t-21 -10.5q-33 -2 -67 -8h180v-4h-203q-56 -11 -113 -28.5t-143.5 -48.5t-113.5 -40q-1 -4 -0.5 -28t0.5 -28h575v-4h-575q0 -88 6 -161h573v-12
h-572v-3q1 -12 -7 -21.5t-20.5 -10.5t-22 7t-10.5 21v7h-22v12h21q-6 73 -6 161h-12v4h12q-1 24 0 51q-7 6 -10 14q-6 19 10 32q0 26 1 57v19h-15z" />
    <glyph glyph-name="G" unicode="G" horiz-adv-x="641" 
d="M502 173h-420q0 -95 71 -128q39 -20 100 -13q61 8 123 43q59 33 126 98zM523 110q-60 -55 -117 -87q-10 -6 -21 -11h146q-7 44 -8 98zM342 250q28 2 116 23l59 15q13 3 19 4q5 1 8 1.5t5 0.5q10 1 20 -7q24 -19 20 -59q-1 -6 -3 -22q-2 -10 -2 -15v-14h66v-4h-66
q-2 -105 8 -161h62v-12h-60q5 -28 15 -57q3 -12 -2.5 -23t-17.5 -14.5t-23 2t-15 17.5q-12 38 -18 75h-174q-62 -26 -122 -28.5t-110 19.5q-9 4 -17 9h-110v12h93q-70 54 -71 161h-19v4h19q0 33 8 69q10 50 34 104h-63v4h65q41 90 111 169h-175v4h179q23 26 48 49
q105 96 217 123h-446v4h464q60 11 117 0h63v-4h-48q9 -5 14 -14t2 -20q-3 -12 -13.5 -18.5t-22.5 -3.5q-74 17 -153.5 -13.5t-152.5 -97.5l-6 -5h384v-4h-388q-78 -75 -127 -169h515v-4h-518q-31 -61 -42 -116q-6 -30 -6 -57h425q7 7 17 8v8q0 9 3 23q2 12 2 13l-57 -14
q-94 -23 -126 -25q-13 -1 -22 7.5t-10 21t7.5 21.5t20.5 10z" />
    <glyph glyph-name="H" unicode="H" horiz-adv-x="641" 
d="M518 173h-410v-11q-4 -94 -2 -150h430q-11 73 -18 161zM113 319q53 17 118 31h-119q1 -16 1 -31zM505 401q-1 22 -4 63t-4 59h-395v-9q1 -19 7 -96q2 -37 3 -64h138q45 9 130.5 24t124.5 23zM508 341q-39 -8 -125 -23t-148 -28.5t-119 -32.5q-2 -1 -4 -1q-1 -22 -4 -79
h410q-4 55 -10 164zM1 350v4h51q-1 23 -3 60q-6 77 -7 98v11h-40v4h39v37q0 27 -1 44t-4 34q-2 13 5.5 23t20 12t22.5 -5.5t12 -19.5q3 -20 4 -39.5t1 -50t1 -35.5h395q-6 97 -6 163q0 5 1 9h-492v4h494q8 17 27 17t27 -17h98v-4h-96q1 -4 1 -9q0 -66 6 -163h91v-4h-91
q1 -17 3.5 -56.5t4.5 -60.5q10 -7 13 -19q4 -19 -11 -31l1 -2h80v-4h-80q6 -118 10 -173h72v-4h-72q7 -86 19 -157v-4h57v-12h-59q-6 -16 -23 -19q-11 -1 -20 4t-13 15h-434q-2 -10 -10 -16.5t-18 -6.5q-11 0 -19.5 6.5t-10.5 16.5h-47v12h46q-2 58 2 152v9h-45v4h45
q5 100 5 142q0 15 -1 31h-51z" />
    <glyph glyph-name="I" unicode="I" 
d="M0 699v4h204q-4 2 -8 6q-9 9 -9 21t9 21t21 9t21 -9t9 -21t-9 -21q-4 -4 -8 -6h221v-4h-451zM1 350v4l183 -1q-1 63 -1 69q-1 59 1 101h-182v4h182q2 35 5 67q2 12 11.5 19.5t22 6t20 -11t6.5 -22.5q-4 -28 -5 -60h206v-4h-206q-2 -41 -1 -99q0 -4 1 -71l207 -1v-4
l-207 1q1 -58 0 -95q-1 -27 -3 -77l209 -1v-4l-209 1q-6 -107 -1 -161l212 -1v-12l-211 1q1 -9 3 -18q1 -12 -6 -22t-19.5 -11.5t-22.5 5.5t-12 20t-3 26l-181 1v12l180 -1q-4 58 1 161l-178 1v4l178 -1q2 56 3 79q1 37 0 94z" />
    <glyph glyph-name="J" unicode="J" horiz-adv-x="641" 
d="M448 173h-331q13 -45 50 -75.5t81.5 -39t91.5 7.5t78 56q17 22 30 51zM1 350v4h482q1 16 1 32q0 60 -6 137h-476v4h476q-3 34 -9 92t-7 66q-1 7 2 14h-464v4h466q8 13 23 15q19 2 29 -15h128v-4h-126l2 -8q0 -4 6.5 -66t9.5 -98h110v-4h-110q6 -77 6 -137q0 -17 -1 -32
h105v-4h-105q-4 -101 -29 -173h136v-4h-138q-18 -50 -46 -87q-40 -51 -100 -74h288v-12h-333q-41 -7 -82 0h-239v12h194q-53 20 -90 61t-48 100h-53v4h52q-2 11 -3 21q-1 13 7 22.5t20.5 10.5t22 -7t10.5 -20q1 -14 4 -27h334q28 68 33 173h-482z" />
    <glyph glyph-name="K" unicode="K" horiz-adv-x="641" 
d="M184 173h-38q-1 -96 7 -158v-3h271q-69 39 -138 85q-60 40 -102 76zM509 699h-371q3 -79 5 -172h183zM146 361q24 27 54 54l64 57q35 29 50 43l8 8h-179q2 -69 3 -162zM146 206v-29h33q-18 15 -33 29zM1 350v4h86q-2 99 -4 169h-81v4h81q-2 93 -5 172h-78v4h78l-1 32
q0 12 8 21.5t20.5 9.5t22 -8t9.5 -21l1 -34h375l30 29q9 8 21.5 8t21.5 -9q11 -12 7 -28h53v-4h-54q-2 -6 -7 -11l-171 -161h234v-4h-238l-56 -52l-62 -55q-46 -40 -69 -62h425v-4h-429q-38 -37 -60 -70q40 -46 117 -103h374v-4h-368l38 -27q113 -76 218 -125q6 -3 11 -9
h105v-12h-100q2 -10 -2 -19q-5 -11 -16.5 -15t-23.5 1q-30 14 -66 33h-295q-7 -17 -24 -19q-23 -3 -32 19h-95v12h93q-8 64 -7 161h-83v4h83v22q-11 4 -16 15.5t-1 22.5q7 20 18 41q-4 11 0 21v28v23h-86z" />
    <glyph glyph-name="L" unicode="L" horiz-adv-x="641" 
d="M135 48q6 1 13 3q19 4 49 13q52 17 138 50l151 59h-358l-1 -16q-1 -35 -1 -57q2 -30 6 -46zM1 350v4h59q-4 99 -3 169h-55v4h55q2 86 12 155q2 10 10 17h-79v4h84q9 5 20 4q5 -1 10 -4h532v-4h-527q12 -11 10 -27q-10 -64 -12 -145h531v-4h-531q-1 -69 3 -169h528v-4
h-528q2 -25 4.5 -75t3.5 -75v-23h368l79 31q12 4 23 -1t16 -16q3 -7 2 -14h34v-4h-35q-4 -15 -18 -21l-241 -95q-75 -28 -126 -45h424v-12h-463q-17 -5 -29 -8q-28 -6 -42 -3q-13 2 -23 11h-97v12h86q-7 10 -11 24q-7 24 -8 62q-1 24 0 61q0 4 1 14h-65v4h65v21
q-1 23 -3.5 74t-4.5 78h-59z" />
    <glyph glyph-name="M" unicode="M" horiz-adv-x="641" 
d="M100 173q-1 -103 11 -161h437q-28 77 -40 161h-408zM107 354h89q-21 34 -47 85l-42 84q2 -33 2 -69q0 -35 -2 -100zM315 354l11 27l17 42q9 23 14 34q16 30 37 66h-220l28 -57q39 -75 67 -112h46zM380 354h117q2 68 10 165q0 2 1 4h-43q-33 -51 -54 -94q-5 -9 -13 -28
l-16 -42zM106 350q-5 -115 -5 -136q-1 -19 -1 -37h407q-11 79 -10 173h-119q-20 -50 -32 -64q-26 -32 -64 -19q-24 8 -50 38q-15 18 -33 45h-93zM300 324q4 5 13 26h-40l5 -6q13 -16 22 -20zM516 605l-49 -78h41q1 7 4 34t4 44zM1 350v4h46q2 64 2 99.5t-3 69.5h-44v4h44
q-2 28 -6 59q-2 15 -4 43q-1 16 -1 26v11l2 8q1 6 5 10q9 12 24 12q12 0 22 -9q4 -3 8 -8q5 -6 11 -18q9 -15 25 -51l40 -83h225l71 113q22 36 33 59h-501v4h502l2 5q1 1 1 2.5t0.5 6t1.5 11.5q7 37 38 42q22 3 33 -17q3 -6 5 -15q1 -10 1 -27v-8h62v-4h-62q-1 -24 -4 -58
q-1 -14 -12 -114h80v-4h-80q-1 -6 -1 -10q-8 -93 -10 -159h91v-4h-91q-1 -95 11 -173h82v-4h-82q13 -79 40 -151q2 -5 2 -10h44v-12h-46q-5 -12 -17 -17q-12 -4 -23 1t-16 16h-438l2 -6q3 -12 -3 -22.5t-18 -14t-22.5 2.5t-14.5 18q-3 10 -5 22h-53v12h50q-11 62 -10 161
h-37v4h37q0 18 1 39q0 22 5 134h-45z" />
    <glyph glyph-name="N" unicode="N" horiz-adv-x="641" 
d="M329 173h-249q2 -73 12 -138q2 -13 -7 -23h403q-5 2 -10 5q-79 63 -149 156zM535 699h-404q35 -96 67 -172h316q6 56 21 172zM216 354q-40 76 -79 169h-42q-1 -13 -2.5 -44.5t-2.5 -49.5l-5 -75h131zM497 354q5 76 16 169h-313q40 -93 82 -169h215zM496 350h-212
q55 -99 116 -173h89q0 80 7 173zM218 350h-133q-6 -106 -5 -173h246q-56 76 -108 173zM102 611q-4 -35 -7 -84h40zM490 83q-2 43 -1 90h-86q42 -51 87 -90zM1 350v4h26l5 79q1 16 2.5 46.5t2.5 43.5h-35v4h35q6 105 19 172h-56v4h57q3 13 15 19q5 9 15 12q11 4 22 -1t15 -16
l5 -14h407v6q2 12 11.5 19t21.5 6q11 -2 18.5 -11t6.5 -20h52v-4h-53q-15 -118 -21 -172h76v-4h-76q-11 -94 -17 -169h93v-4h-93q-8 -93 -8 -173h103v-4h-103q-1 -86 6 -161h101v-12h-100v-1q1 -12 -6.5 -21.5t-19.5 -10.5t-21.5 6.5t-10.5 19.5l-1 7h-495v12h41q-5 6 -7 15
q-10 67 -12 146h-19v4h19q-1 68 5 173h-26z" />
    <glyph glyph-name="O" unicode="O" horiz-adv-x="641" 
d="M424 173h-341q3 -21 9 -40q20 -65 61 -83q37 -17 92 1q47 15 95 49t84 73zM367 703h112l-8 6q-21 14 -51 11q-24 -3 -53 -17zM359 699q-37 -18 -86 -54l-35 -26q-11 -9 -24 -21t-16.5 -15.5t-21.5 -24.5l-28 -31h391q-4 64 -24 118q-13 35 -32 54h-124zM522 354
q7 22 10 44q11 62 7 125h-394q-36 -79 -54 -169h431zM521 350h-430q-19 -98 -9 -173h345l10 12q58 72 84 161zM1 350v4h31q16 88 50 169h-80v4h81q35 82 79 135q7 9 19 10t22 -7l36 26l10 8h-249v4h255q93 66 158 74q52 7 91 -20q28 -19 48 -54h94v-4h-92q8 -15 15 -34
q23 -63 28 -138h51v-4h-50q3 -69 -8 -135q-3 -17 -8 -34h66v-4h-67q-24 -94 -80 -173h149v-4h-152q-7 -10 -15 -20q-32 -40 -80 -78.5t-99 -62.5h350v-12h-379l-12 -4q-76 -25 -133 1q-4 1 -7 3h-123v12h103q-45 34 -67 105q-8 26 -11 56h-22v4h21q-9 78 8 173h-31z" />
    <glyph glyph-name="P" unicode="P" horiz-adv-x="641" 
d="M333 354l17 11q129 91 171 158h-427q2 -72 3 -169h236zM327 350h-230q0 -33 0.5 -93.5t0.5 -79.5h5q-1 15 11 24q28 24 110 79zM91 642q2 -54 3 -115h429q6 9 10 17q12 27 9 54t-21 44q-65 58 -205 51q-119 -6 -225 -51zM1 350v4h38q-1 97 -3 169h-34v4h34q-2 85 -5 159
q0 7 3 13h-34v4h36q8 12 23 13q16 1 25 -13h4q110 42 225 48q141 7 223 -48h110v-4h-104q9 -7 17 -15q33 -29 40 -75t-11 -82h60v-4h-61l-2 -3q-36 -76 -153 -166h216v-4h-221l-44 -32l-127 -86q-55 -37 -79 -55h473v-4h-479l-21 -16q-9 -8 -21 -7t-19 11q-5 5 -6 12h-6
q1 -92 2 -158v-3h554v-12h-558q-8 -14 -25 -14q-16 0 -25 14h-46v12h42v3q-1 65 -2 158h-37v4h37q0 18 -0.5 79t-0.5 94h-38z" />
    <glyph glyph-name="Q" unicode="Q" horiz-adv-x="641" 
d="M363 703h128q-9 9 -20 13q-43 17 -108 -13zM354 699q-27 -14 -58 -35q-72 -50 -153 -137h403q-2 26 -6 54q-12 83 -45 118h-141zM529 350h-446q-17 -100 -8 -173h203l-2 2q-7 10 -4.5 22t12 19t21.5 4.5t19 -11.5l23 -36h84q6 6 11 13q60 72 87 160zM129 514
q-30 -70 -45 -160h446q7 22 10 44q10 53 6 125h-407l-3 -3q-3 -3 -7 -6zM375 126q29 23 52 47h-78q13 -22 26 -47zM328 92q-24 46 -47 81h-206q3 -22 9 -40q20 -65 63 -84q38 -16 96 2q40 13 85 41zM353 39q-26 -16 -51 -27h63zM1 350v4h24q15 92 45 169h-68v4h69
q7 17 14 31q17 36 73 104q7 9 19 10t22 -7l2 -2q23 20 44 36h-245v4h251l12 9q136 94 230 58q43 -17 70 -67h83v-4h-81q23 -44 33 -109q4 -30 6 -63h44v-4h-44q4 -77 -6 -135q-3 -17 -8 -34h58v-4h-59q-25 -93 -84 -173h145v-4h-147l-17 -21q-34 -41 -85 -80l29 -60h224v-12
h-219q17 -36 30 -59q5 -11 1.5 -22.5t-14 -17t-22 -2t-17.5 13.5q-18 34 -42 87h-98q-7 -2 -13 -4q-78 -25 -136 0l-8 4h-116v12h96q-46 34 -68 105q-7 25 -11 56h-14v4h14q-9 76 7 173h-23z" />
    <glyph glyph-name="R" unicode="R" horiz-adv-x="641" 
d="M291 354l20 12q150 92 199 157h-435q2 -73 3 -169h213zM71 661q2 -63 4 -134h438l13 19q23 43 -2 77.5t-80 50.5q-91 24 -184.5 19.5t-188.5 -32.5zM79 227q22 14 87 53l118 70h-206q0 -36 1 -123zM79 158q1 -85 2 -146h396q-37 41 -62 72l-65 89h-248zM317 302
q40 -37 102 -125h231v-4h-228q24 -35 39 -53q30 -38 94 -108h99v-12h-88l8 -9q9 -9 8 -21t-9.5 -20.5t-20.5 -7.5t-20 9l-45 49h-407q-2 -9 -10 -15.5t-18 -6.5t-18 6t-10 16h-24v12h23q-1 66 -2 161h-18v4h18q0 6 -0.5 72.5t-0.5 100.5h-19v4h19q-1 96 -3 169h-15v4h15
q-1 61 -3 115l-5 -1q-11 -4 -22 1t-15 16t1 22t16 15l11 4v4h10q72 25 146 38t155 11t149 -22q33 -10 61 -27h125v-4h-119q27 -18 44 -42q44 -60 10 -130h67v-4h-69l-3 -5q-40 -73 -176 -164h248v-4h-254l-52 -33zM265 271l-70 -41q-58 -34 -87 -53h239q-41 57 -77 89z" />
    <glyph glyph-name="S" unicode="S" horiz-adv-x="641" 
d="M116 138q19 -46 84.5 -76.5t146.5 -34.5q78 -4 124 19q39 18 33 50q-7 45 -63 77h-438v4h431q-35 18 -134 49q-110 34 -156 59q-52 28 -80 65h-63v4h60q-16 22 -24 47q-17 54 35 122h-70v4h73q6 8 13 16q61 68 157 116q53 26 106 40h-351v4h368q79 17 141 0h137v-4h-124
q56 -19 91 -67q7 -9 5.5 -21t-11 -19t-21.5 -5.5t-19 11.5q-28 37 -76 49t-104 1t-116 -41q-67 -34 -117 -80h494v-4h-498q-10 -9 -19 -19q-48 -54 -38 -85q11 -37 49 -65h506v-4h-500l23 -14q41 -22 146 -54q108 -33 152 -58q37 -21 59 -47h122v-4h-119q24 -30 31 -67
q9 -57 -36 -94h128v-12h-145q-6 -4 -13 -7q-60 -29 -152 -24q-78 4 -147 31h-197v12h170q-81 40 -108 104q-4 11 0.5 22t15.5 15.5t22 0t16 -15.5z" />
    <glyph glyph-name="T" unicode="T" horiz-adv-x="641" 
d="M1 350v4h260q8 87 19 169h-278v4h278q8 61 18 120q-178 -16 -263 -19q-12 0 -21 8t-9 20t8 21t20 9q78 2 196 13h-229v4h273l39 4q10 13 27 10q8 -2 14 -7q147 13 243 13q21 0 28 -20h22v-4h-21v-5q0 -12 -8.5 -20.5t-20.5 -8.5q-95 0 -239 -13q-10 -61 -18 -125h309v-4
h-310q-11 -82 -19 -169h329v-4h-329q-7 -83 -12 -173h343v-4h-344q-4 -75 -6 -155q0 -3 -1 -6h355v-12h-361q-9 -10 -23 -10q-13 0 -21 10h-249v12h243q-1 4 -1 8q2 79 6 153h-245v4h246q5 90 12 173h-260z" />
    <glyph glyph-name="U" unicode="U" horiz-adv-x="641" 
d="M450 173h-341q21 -56 58 -86t81.5 -34.5t91 16.5t83.5 66q14 17 27 38zM135 699q12 -13 7 -29q-22 -67 -37 -143h427l2 29q8 116 11 143h-410zM512 354l8 46q6 51 12 123h-427q-17 -90 -19 -169h426zM512 350h-426q-3 -105 22 -173h344q40 67 60 173zM1 350v4h27
q2 80 18 169h-44v4h44q16 86 40 161q2 6 7 11h-93v4h98q11 8 25 4q4 -2 7 -4h415v2q2 12 11 19.5t21 6.5q11 -1 18.5 -9t7.5 -19h43v-4h-43q-4 -37 -11 -147l-2 -25h58v-4h-58q-6 -78 -13 -131q-3 -20 -6 -38h77v-4h-77q-18 -102 -53 -173h132v-4h-134q-21 -42 -49 -76
q-49 -59 -114 -85h301v-12h-338q-37 -8 -73 -5q-15 2 -29 5h-214v12h179q-86 38 -124 141q-4 10 -7 20h-45v4h44q-21 72 -19 173h-27z" />
    <glyph glyph-name="V" unicode="V" horiz-adv-x="641" 
d="M410 354l56 169h-330l71 -169h203zM409 350h-200l70 -173h72q3 8 4 10zM323 82l8 23l19 68h-69q15 -36 34 -75zM1 350v4h144q-41 101 -72 169h-71v4h69l-53 113q-5 11 -1.5 22.5t14.5 16.5t22.5 1.5t16.5 -14.5l65 -139h333l57 172h-525v4h526l6 18q4 11 14.5 16.5t22 2
t17 -14t2.5 -22.5h58v-4h-60l-57 -172h119v-4h-120l-57 -169h177v-4h-178l-58 -173h238v-4h-239l-2 -4q-1 -4 -4.5 -16t-8.5 -31t-10 -34q-10 -31 -17 -50q-5 -13 -9 -20l-4 -6h298v-12h-312q-4 -2 -9 -3q-9 -1 -18 3h-315v12h299q-5 6 -11 16q-10 16 -25 44q-20 41 -36 79
l-9 22h-215v4h213l-70 173h-145z" />
    <glyph glyph-name="W" unicode="W" horiz-adv-x="641" 
d="M290 173q-16 -71 -30 -113q-9 -29 -17 -45l-1 -3h195l-25 57q-23 56 -40 104h-82zM269 354q6 32 7 42q2 10 2.5 21.5t0.5 27t1 25.5q1 31 7 53h-175q19 -76 39 -169h118zM497 354q14 68 39 169h-170v-7q0 -2 1 -37q0 -20 1 -27q7 -53 16 -98h113zM268 350h-116l36 -173
h44l4 21q17 72 32 152zM496 350h-112q18 -87 48 -173h40q6 79 24 173zM209 90q12 39 22 83h-42v-4q5 -24 20 -79zM463 97q7 50 8 71v5h-37q13 -36 29 -76zM326 346q-14 -75 -33 -160l-2 -9h80q-28 83 -45 169zM1 350v4h91q-20 93 -40 169h-50v4h49q-17 64 -35 124
q-3 11 2.5 21.5t17 14t22 -2t14.5 -17.5q20 -66 39 -140h178q4 15 12 28q4 6 8 10q9 8 20 9q16 1 26 -12q4 -5 7 -12q3 -8 3 -23h172l43 172h-580v4h580l2 6q2 11 12.5 17.5t22.5 3.5q9 -2 15.5 -9.5t6.5 -17.5h7v-4h-7q0 -2 -1 -4l-41 -168h51v-4h-52q-26 -104 -40 -169h92
v-4h-92q-19 -95 -26 -173h120v-4h-120q-1 -5 -1 -9q-2 -28 -9 -84q-5 -36 -9 -58l-2 -10h145v-12h-148q-2 -6 -4 -10q-6 -12 -16 -17q-15 -6 -28 3q-3 2 -6 5q-1 1 -2 3l-2 2q0 1 -1 3l-2 5l-3 6h-207l-2 -2q-10 -13 -24 -16q-13 -2 -24 7q-4 3 -7 7l-2 4h-176v12h171
q-2 5 -4 12q-6 19 -15 51q-14 57 -19 82l-4 16h-126v4h126l-36 173h-92z" />
    <glyph glyph-name="X" unicode="X" horiz-adv-x="641" 
d="M415 173h-185q-64 -98 -95 -161h388zM322 422l65 101h-134zM323 315l-40 -62l-50 -76h179zM1 350v4h278l9 14q-59 89 -107 155h-179v4h176q-47 65 -93 119q-8 10 -7 21.5t10.5 19.5t21 7t19.5 -10q59 -70 121 -157h139l110 172h-499v4h502l1 2q7 11 18.5 13.5t21.5 -3.5
q7 -5 11 -12h92v-4h-90q4 -13 -3 -24l-95 -148h190v-4h-192l-99 -154l1 -2l9 -13h281v-4h-279l112 -173h169v-4h-166l88 -129q11 -16 1 -32h81v-12h-95q-11 -4 -22 0h-408l-2 -4q-5 -11 -16 -15t-22 1q-12 5 -16 18h-73v12h72q1 4 3 8q30 65 86 153h-158v4h161l71 108l41 65
h-275z" />
    <glyph glyph-name="Y" unicode="Y" horiz-adv-x="641" 
d="M124 699q2 -3 3 -8q27 -78 63 -164h233l115 172h-414zM270 354h46l105 169h-229l24 -58q29 -64 54 -111zM292 315l21 35h-41q10 -19 20 -35zM1 350v4h204q-20 39 -42 87l-34 82h-127v4h125q-31 78 -54 146q-5 14 4 26h-77v4h80q5 4 11 6q16 6 29 -6h420l11 16
q7 9 19 11.5t22 -4.5q11 -9 12 -23h42v-4h-42q-1 -7 -5 -14l-107 -158h156v-4h-158l-106 -169h264v-4h-267l-52 -87q8 -9 7 -21t-10 -20q-11 -10 -26 -6l-23 -39h373v-4h-376l-97 -161h477v-12h-484l-30 -49q-7 -10 -18.5 -13t-21.5 3.5t-13 18t3 21.5l12 19h-102v12h109
l98 161h-204v4h206l50 83q-25 36 -52 90h-206z" />
    <glyph glyph-name="Z" unicode="Z" horiz-adv-x="641" 
d="M90 706q61 -3 190 6q36 2 142 6q55 1 87 1h30q7 -1 11 -1q4 -1 7 -2q10 -2 16 -10q1 -2 2 -3h71v-4h-69q6 -12 4 -27q-2 -12 -9 -25q-10 -19 -31 -45q-13 -16 -36 -42q-19 -23 -23 -27l-4 -6h170v-4h-173l-123 -169h296v-4h-299l-128 -173h429v-4h-432l-30 -39l-76 -93h4
q27 3 64 9q15 2 87.5 14t101.5 16t84 9t100 5q12 0 20.5 -8.5t8.5 -20.5t-8.5 -20.5t-20.5 -8.5q-95 0 -243 -24h344v-12h-417l-47 -8q-40 -6 -69 -8q-29 -3 -47 -2q-14 1 -22 4q-13 5 -20 14h-32v12h26q-7 26 19 45q3 3 6 5t3.5 2.5t1.5 0.5t1 1q36 41 85 104l3 3h-142v4
h145l130 173h-277v4h279l123 169h-401v4h404l30 40q5 7 26 31q23 27 34 40q10 13 17 23h-4q-32 0 -86 -1q-104 -4 -139 -6q-132 -9 -196 -6q-12 1 -20.5 9.5t-7.5 20.5q1 13 10 21h-70v4h76q7 3 14 3z" />
    <glyph glyph-name="bracketleft" unicode="[" 
d="M264 726q-51 8 -63 8q-22 -1 -27 -7v-1v-13v-10h277v-4h-277q1 -10 2 -24q1 -11 2 -26l3 -25q1 -9 1 -12l2 -85l266 -1v-4l-266 1q2 -73 2 -170l265 -2v-4l-265 2v-138q0 -17 -1 -35l265 -1v-4l-265 1q-2 -56 -11 -143q-1 -4 -2 -11q13 -1 34 1q27 2 68 9q22 3 32 -17
l146 -1v-12l-144 1q0 -11 -7 -19t-17 -10q-43 -7 -74 -9q-27 -2 -46 0q-30 3 -44 19q-7 9 -9 20h-111v12h110q1 4 2 10q1 4 2 6.5t1.5 3.5t0.5 2v1q9 84 11 137l-124 1v4l124 -1q1 18 1 35v138l-127 1v4l127 -1q0 97 -2 170h-124v4h124l-2 83q0 3 -1 11.5t-2.5 23t-2.5 26.5
q-1 16 -2 28h-116v4h116v8q-1 10 0 17q0 11 3 18q17 45 82 46q16 0 71 -8q12 -2 19 -11.5t5.5 -21.5t-11 -19t-21.5 -6z" />
    <glyph glyph-name="backslash" unicode="\" 
d="M1 350v4l178 -1q-9 31 -29 89.5t-27 80.5h-121v4h120q-33 101 -43 172h-79v4h79l-1 3q-1 12 6 21.5t19 11t21.5 -5.5t11.5 -19q0 -6 1 -11h314v-4h-313q11 -69 45 -172l267 -1v-4l-266 1q49 -147 56 -171l211 -1v-4l-210 1l1 -2q7 -24 22.5 -82t24.5 -88l161 -1v-4
l-160 1q26 -88 54 -150q2 -6 2 -12h106v-12h-108q-5 -10 -15 -15q-11 -4 -22.5 0t-16.5 15v1l-290 1v12l285 -1q-28 66 -55 161l-227 1v4l225 -1l-42 154l-5 19z" />
    <glyph glyph-name="bracketright" unicode="]" 
d="M132 -13q28 -1 80 1q31 0 49 2v4v5l-261 1v12l260 -1q0 17 -2 45q-6 107 -6 110v6l-249 1v4l249 -1q-1 78 -2 172l-249 2v4l249 -2v170l-248 1v4l248 -1v84l1 28q1 27 0 45v16h-251v4h250q-1 10 -2 17q0 1 -1 3l-1 -1q-9 0 -24 -4l-28 -8q-18 -4 -25 -6q-12 -2 -22 5.5
t-12 19t5.5 21.5t18.5 12q5 0 19 4q22 6 30 8q20 5 33 6q23 2 37 -5q20 -11 27 -44q2 -12 3 -28h143v-4h-142v-15q1 -18 0 -46l-1 -28v-84h142v-4h-142v-170l143 -1v-4l-143 1q1 -94 2 -172l140 -1v-4l-140 1v-6q0 -1 6 -107q2 -29 2 -48l134 -1v-12l-133 1v-3v-23v-8
q-1 -3 -1 -6q-2 -7 -7 -12q-6 -8 -16 -11q-4 -1 -9 -2q-8 -1 -20 -2q-20 -2 -52 -2q-53 -2 -84 -1q-12 0 -20 9t-8 21t9 20t21 8z" />
    <glyph glyph-name="asciicircum" unicode="^" 
d="M452 -2l-452 2v12l452 -2v-12zM450 171l-447 2v4l447 -2v-4zM258 671q-9 -25 -17 -40q-16 -29 -63 -104l116 -1l-16 63q-14 59 -20 82zM1 350v4l347 -2v1q-22 47 -53 169l-119 1q-47 -76 -66 -125q-4 -11 -15 -16t-22 -1t-16 15t-1 22q17 45 52 105h-106v4h108l38 61
q29 47 41 71q8 13 17 40h-206v4h207l7 20l10 30q2 7 3 11q2 3 3 6q2 3 5 6q11 12 27 8q13 -3 23 -16q4 -5 8 -15q5 -13 13 -38l3 -12h142v-4h-141q8 -28 24 -96l20 -77h96v-4h-95q27 -105 45 -145q6 -13 0 -26h51v-4h-54q-4 -5 -11 -8q-21 -10 -35 9z" />
    <glyph glyph-name="underscore" unicode="_" 
d="M452 -2l-452 2v12l452 -2v-12zM450 171l-447 2v4l447 -2v-4zM2 523v4l448 -1v-4zM0 699v4h451v-4h-451zM1 350v4l450 -3v-4zM74 -113l58 25l65 28q24 10 59.5 23.5t66.5 22.5q11 3 22 -2.5t14 -17t-2.5 -22.5t-17.5 -14q-30 -9 -63.5 -21.5t-56.5 -22.5l-63 -26l-60 -27
q-11 -4 -22 0.5t-15.5 15.5t0 22t15.5 16z" />
    <glyph glyph-name="grave" unicode="`" 
d="M452 -2l-452 2v12l452 -2v-12zM450 171l-447 2v4l447 -2v-4zM0 699v4h77l-2 10q-2 12 5 22t19 12t22 -5t12 -19q1 -10 4 -20h314v-4h-312q7 -21 19 -42t35 -53l31 -45q11 -16 0 -32l226 -1v-4l-229 1q-3 -3 -5 -4q-20 -13 -37 4h-177v4h174q-6 10 -24 36l-30 43
q-12 17 -25 43.5t-19 49.5h-78zM1 350v4l450 -3v-4z" />
    <glyph glyph-name="a" unicode="a" 
d="M272 172l-202 1q-6 -48 11 -80q18 -36 61 -31q43 4 76 37q29 30 54 73zM313 465q-79 -20 -155 -112l149 -1q1 55 5 102q1 5 1 11zM314 273q-5 37 -7 72v3l-152 1l-8 -10q-64 -83 -76 -162l203 -1q24 45 40 97zM334 166q-32 -65 -74 -107q-33 -33 -78 -48l193 -1
q-27 97 -41 156zM0 699v4h451v-4h-451zM1 350v4l85 -1q7 11 15 21q42 55 96 96t108 52l-303 1v4l332 -1h4q10 5 21 2q3 -1 5 -2h86v-4h-71q17 -4 30 -22q2 -3 3.5 -5.5t2 -3.5t1.5 -1l1 -2q8 -9 7.5 -21t-8.5 -20q-10 -9 -22 -8q2 -41 -3 -88h60v-4h-61q-5 -39 -16 -78
q6 -44 18 -94h58v-4h-57q13 -56 42 -158q0 -1 1 -3h16v-12h-17q-4 -16 -20 -21q-12 -3 -22.5 2.5t-13.5 17.5v1l-379 2v12h88q-38 15 -59 53q-24 46 -17 108h-9v4h9q11 83 71 172z" />
    <glyph glyph-name="b" unicode="b" 
d="M128 353l230 -1q0 26 -4 49q-6 37 -28 46q-22 8 -60 -4q-37 -11 -75 -36t-57 -47zM110 326l4 -107q0 -4 0.5 -18.5t0.5 -24.5h191q2 3 4 7q44 75 47 165l-232 1q-9 -11 -15 -23zM131 30q9 -4 27 4q26 11 60 41q50 45 85 97h-188q1 -35 3 -62q3 -39 8 -62q2 -11 5 -18z
M1 350v4h50q-2 84 -3 169h-46v4h46q-1 86 0 172h-48v4h48q0 46 1 92q0 12 9 20t21 8t20 -9t8 -21q-1 -45 -1 -90h345v-4h-345q-1 -86 0 -172l344 -1v-4l-344 1q0 -54 2 -107q64 59 141 83q58 18 99 1q52 -21 64 -89q4 -28 4 -60h35v-4h-36q-3 -89 -43 -172h78v-4h-80
l-10 -18q-13 -22 -42 -57t-62 -64q-13 -12 -25 -21l221 -1v-12l-238 1q-17 -11 -33 -18q-50 -22 -85 2q-9 6 -15 17h-81v12h76q-4 10 -7 25q-5 26 -8 68q-2 29 -4 68h-54v4h54q0 7 -0.5 16t-0.5 15v9v4h-2q-12 2 -19 11.5t-6 21.5q6 48 23 84l-1 12h-50z" />
    <glyph glyph-name="c" unicode="c" 
d="M353 171l-263 2q-4 -48 7.5 -81.5t31.5 -47.5q15 -11 35 -12t51 12t65 44q24 21 73 83zM0 699v4h451v-4h-451zM392 485q-88 34 -186 -70q-26 -28 -48 -62l293 -2v-4l-296 2q-48 -75 -60 -141q-3 -17 -5 -31l266 -2q8 8 18.5 8t19.5 -6l2 -2h54v-4h-51q13 -18 0 -35
q-53 -66 -81 -92q-21 -19 -43 -33l177 -1v-12l-197 1q-92 -50 -159 -2l-4 3h-92v12h78q-53 54 -46 161h-29v4h29q2 20 5 41q12 62 51 131l-87 1v4l89 -1q33 57 74 101t85 68l-247 1v4l254 -1q81 42 156 13q10 -4 15 -13h23v-4h-21q4 -10 0 -20q-4 -12 -15 -16.5t-22 -0.5z
" />
    <glyph glyph-name="d" unicode="d" 
d="M308 172l-244 1q0 -7 1 -14q11 -95 52 -125q39 -29 103 30q37 34 58 62q14 20 30 46zM362 149q-20 -33 -38 -57q-24 -33 -64 -70l-13 -11l123 -1q-2 59 -8 139zM356 246q-5 64 -7 102l-263 1q-29 -81 -22 -172l247 -1l37 62q3 5 8 8zM343 474q-1 25 -1 48h-49
q15 -9 30 -24q10 -10 20 -24zM1 350v4h25q2 8 5 15q40 114 123 154h-152v4h161q67 28 122 -1h57q-1 93 5 173h-347v4h347q2 27 5 52q2 12 11 19.5t21 6t19.5 -10.5t6.5 -21q-3 -23 -5 -46h46v-4h-46q-6 -80 -5 -173h50v-4h-50q1 -73 7 -171h44v-4h-44q2 -33 6.5 -94t5.5 -78
h31v-4h-31q6 -94 9 -161h24v-12h-24q-1 -11 -9 -19t-19 -8q-12 0 -20.5 8t-9.5 19l-138 1q-84 -60 -150 -12q-7 6 -14 13h-68v12h57q-39 50 -49 141q-2 10 -2 20h-3v4h2q-5 90 20 173h-24zM340 364q-7 12 -18.5 34t-20.5 35t-20 25q-39 39 -96 15q-64 -27 -98 -120l262 -1v3
q-6 4 -9 9z" />
    <glyph glyph-name="e" unicode="e" 
d="M353 171l-292 2q4 -47 24 -78q35 -52 112 -43q49 6 80 31q30 24 63 77q5 8 13 11zM97 353l280 -2q3 20 -3 45t-20 45q-21 29 -50 43t-57 7q-46 -11 -85 -48t-65 -90zM0 699v4h451v-4h-451zM1 350v4h33q48 117 138 169h-170v4h177q26 13 54 20q59 14 114 -21h103v-4h-97
q28 -19 48 -47q43 -60 34 -124h16v-4h-17q-5 -28 -21 -52q-5 -8 -16 -14q-6 -2 -14 -5q-13 -4 -35 -9q-36 -8 -97 -20q-28 -5 -66 -11t-62 -10.5t-32 -5.5q-18 -4 -29 11q-4 -28 -2 -54l390 -2v-4h-73q2 0 3 -1q10 -7 13 -18.5t-3 -21.5q-27 -45 -55.5 -74t-66.5 -45l184 -1
v-12l-221 1q-13 -3 -28 -5q-43 -5 -80 5l-123 1v12h93q-34 18 -56 52q-46 69 -33 178q7 55 28 108h-31zM79 276q8 2 33 6l62 10l67 12q60 11 94 19l30 8q3 1 4 2q5 6 7 15l-281 1q-17 -37 -27 -77q5 3 11 4z" />
    <glyph glyph-name="f" unicode="f" 
d="M173 344l9 5h-10zM1 350v4l112 -1q-7 101 -4 170h-107v4h107q3 96 26 172h-135v4h136q16 51 47.5 98.5t69.5 70.5q52 31 98.5 6.5t75.5 -104.5q4 -11 -1 -22t-16 -15t-22 1t-15 16q-22 59 -49 73q-17 10 -41 -5q-24 -14 -47.5 -47t-37.5 -72h253v-4h-255q-3 -8 -5 -16
q-21 -70 -24 -156l283 -1v-4l-284 1q-2 -67 6 -170h18q99 51 167 76q11 4 22 -1t15 -16t-1 -22t-16 -15q-27 -10 -56 -23l130 -1v-4l-139 1q-42 -19 -101 -49l-33 -18q4 -54 6 -88l1 -17l265 -1v-4l-265 1q6 -108 14 -161l253 -1v-12l-251 1q3 -18 7 -36q3 -11 -3.5 -21.5
t-18 -13t-22 4t-12.5 18.5q-6 23 -9 48l-143 1v12l141 -1q-8 54 -14 161l-124 1v4l124 -1l-1 13q-1 26 -4 63q-45 -23 -78 -38q-11 -5 -22 -1t-16 15t-1 22t15 16q38 18 97 49q-2 19 -3 34z" />
    <glyph glyph-name="g" unicode="g" 
d="M249 172l-169 1v-19q0 -39 4.5 -62.5t18.5 -40.5q30 -36 53 -26q26 10 55 61q20 36 38 86zM311 172q-23 -67 -49 -114q-16 -28 -32 -47l115 -1q1 65 -14 162h-20zM288 348l-160 1q-43 -76 -48 -172l171 -1q22 64 29 109q5 28 8 63zM324 215l-12 -39h19l-2 8zM0 699v4h451
v-4h-451zM358 490q-4 4 -8 11l-5 9q-3 5 -4 6q-20 14 -61 -9q-27 -16 -70 -56q-50 -47 -80 -98l158 -1q2 23 3 54q1 14 0 46v22v4v3q0 1 1 4q1 4 2 7q4 7 11 12q16 9 31 -1q4 -3 7 -7t4 -6l1 -2v-4l1 -2v-2v-1v-2v-20v-4q2 -43 11 -101l91 -1v-4l-91 1q4 -28 13.5 -80.5
t12.5 -74.5l3 -18h61v-4h-60q14 -94 13 -161h49v-12h-49q-2 -55 -15 -101q-16 -61 -77.5 -97t-123.5 -30q-47 5 -89.5 40.5t-71.5 78.5q-7 9 -4.5 21t12 19t21.5 4.5t19 -12.5q25 -36 57 -63q33 -27 62 -30q44 -4 86.5 21t52.5 62q11 40 13 87l-126 1q-20 -20 -42 -28
q-55 -22 -106 29h-71v12h60l-1 1q-17 21 -26 49t-10 45.5t-1 46.5v19h-19v4h19q4 95 41 173h-62v4h64q36 75 105 139q20 19 33 30h-201v4h206q23 18 44 30q71 41 121 7q12 -8 22 -24l6 -10l2 -4h47v-4h-44q6 -9 3.5 -20.5t-11.5 -17.5q-10 -8 -21.5 -6t-18.5 12z" />
    <glyph glyph-name="h" unicode="h" 
d="M145 172q-8 -31 -18 -76q-1 -7 -4 -26l-4 -39q-2 -10 -3 -20l258 -1q0 23 2 77.5t2 83.5zM142 353q17 40 38 75q45 77 96 94l-185 1q1 -32 6 -95.5t6 -74.5h39zM206 353l162 -1q-6 35 -16 59q-10 26 -22 40t-18.5 16.5t-12.5 1.5q-31 -6 -69 -71q-13 -23 -24 -45z
M204 349q-33 -71 -58 -173l232 -1v39q-1 81 -9 134zM108 258q15 49 33 91h-38q4 -49 5 -91zM1 350v4h44q-12 154 -12 169h-31v4h30q-4 94 5 172h-37v4h37q5 43 14 85q2 12 12 18.5t22 4t18.5 -12.5t3.5 -22q-7 -37 -11 -73h355v-4h-356q-9 -78 -5 -172l202 -1q12 2 24 0h134
v-4h-119q45 -17 75 -89q14 -34 21 -82h24v-4h-23q7 -54 8 -132v-40h14v-4h-14q0 -30 -2 -84t-2 -77h20v-12h-20v-1q0 -12 -8.5 -20.5t-20.5 -8.5t-20.5 8.5t-8.5 20.5v1l-260 1l-1 -4q-2 -9 -3 -15q-4 -13 -12 -20q-9 -7 -20 -7t-19 8q-5 5 -8 12q-1 3 -1 6v2v3v7v9h-50v12
h51v3q0 27 2 77q1 35 0 81h-50v4h50q-1 15 -2 42.5t-1 36.5q-1 41 -5 94h-44z" />
    <glyph glyph-name="i" unicode="i" 
d="M0 699v4h228q5 10 16 14t22 -1q9 -4 14 -13h171v-4h-169q3 -11 -2 -21l-15 -33q-5 -11 -16 -15t-22 1t-15 16t1 22l13 30h-226zM1 350v4l183 -1q8 64 22 153q2 10 10 17h-214v4h219q9 4 19 3q5 -1 9 -4h201v-4h-195q11 -10 9 -26q-14 -83 -21 -144l208 -1v-4l-209 1
q-11 -94 -13 -172l221 -1v-4l-221 1q-2 -87 8 -161l215 -1v-12l-216 1q-5 -19 -24 -22q-11 -1 -20.5 5t-11.5 17l-180 1v12l178 -1q-9 75 -7 161l-168 1v4l168 -1q2 79 13 173z" />
    <glyph glyph-name="j" unicode="j" 
d="M0 699v4h240q-3 6 -3 13q0 12 8.5 20.5t20.5 8.5t20.5 -8.5t8.5 -20.5q0 -7 -3 -13h159v-4h-161q-2 -2 -4 -3q-8 -9 -20 -9t-20 9q-2 1 -4 3h-242zM65 -52q5 -79 31 -109q16 -19 42 -12q31 10 64.5 51.5t49.5 99.5q3 10 5 21l-257 1v12l260 -1q15 71 15 161l-272 1v4
l272 -1q0 37 -3 85q-2 37 -6 87l-265 2v4l265 -2q-10 119 -11 170l-253 1v4l252 -1v32q0 12 8.5 20.5t20.5 8.5t20.5 -8.5t8.5 -20.5v-32h138v-4h-137q1 -50 11 -170l127 -1v-4l-127 1q4 -51 6 -83q3 -49 3 -89l117 -1v-4l-117 1q0 -89 -14 -161l133 -1v-12l-135 1
q-4 -19 -9 -37q-19 -68 -61.5 -121.5t-92.5 -68.5q-61 -19 -102 29q-39 44 -45 143q-1 12 7 21t20 10t21 -7t10 -20z" />
    <glyph glyph-name="k" unicode="k" 
d="M174 353l9 13q87 121 110 156l-190 1q1 -56 1 -85q0 -31 -1 -85h71zM103 248q25 41 68 101h-68v-101zM105 144q3 -72 11 -133h207q-80 60 -218 133zM1 350v4h44q1 54 1 84q0 26 -1 85h-43v4h43q-3 112 1 172h-46v4h47q2 28 5 53q2 12 11.5 19t21.5 5.5t19 -11t6 -21.5
q-3 -22 -5 -45h346v-4h-346q-5 -57 -2 -172l192 -1l11 18q7 10 18.5 13t21.5 -3q16 -10 14 -28h90v-4h-91q-1 -4 -3 -8q-31 -50 -111 -162l206 -1v-4l-209 1l-12 -15q-63 -88 -93 -141l30 -16l283 -1v-4l-276 1q150 -82 238 -159q2 -1 3 -3h37v-12h-31q4 -15 -6 -26
q-8 -9 -20 -10t-21 7l-35 30h-221l3 -14q2 -12 -5 -22t-19 -12t-22 5t-12 19t-3 25h-60v12h58q-10 71 -12 161h-43v4h42q-1 57 0 173h-44z" />
    <glyph glyph-name="l" unicode="l" 
d="M200 778q-1 -34 -1 -75h252v-4h-252q1 -26 2 -84t1 -88l248 -1v-4l-248 1v-33q0 -22 -5 -137l254 -2v-4l-254 2q-5 -108 3 -173l250 -1v-4l-250 1q4 -31 10 -58q7 -30 19.5 -49t36.5 -39q8 -6 10 -15l176 -1v-12l-175 1q-2 -8 -7 -13q-7 -10 -19 -11t-21 7q-11 8 -20 17
l-210 1v12l198 -1q-32 36 -44 89q-8 35 -12 72l-139 1v4l138 -1q-6 68 -2 173l-138 1v4l138 -1q5 128 5 137v33h-142v4h142q0 30 -1 88t-2 84h-141v4h141q0 43 1 77q0 12 9 20t21 8t20 -9t8 -21z" />
    <glyph glyph-name="m" unicode="m" horiz-adv-x="641" 
d="M356 354h137q0 54 -4 96q-3 44 -10 73h-66q-27 -41 -45 -113q-6 -26 -12 -56zM356 350q-3 -19 -18 -140q-1 -9 -3 -33h154q0 4 1 29t1 38q0 2 0.5 19.5t1 40.5t0.5 46h-137zM164 350q-10 -57 -15 -125q-1 -16 -1 -48h102q-2 153 -2 173h-84zM92 242q5 58 13 108h-24
q0 -9 1 -18l3 -42q0 -1 1 -2q0 -2 1 -5q1 -10 5 -41zM304 390q3 15 8 34q15 59 34 99h-60q2 -5 4 -12q5 -18 8 -45q4 -30 6 -76zM460 565q-2 0 -6 -2q-21 -12 -38 -36h62q-4 15 -9 25q-5 11 -9 13zM220 519q-4 -4 -8 -10q-10 -17 -27 -73q-12 -40 -20 -82h83q-2 65 -8 105
q-2 23 -6 38l-5 14q-9 5 -9 8zM0 699v4h646v-4h-646zM1 350v4h21q-3 59 -3 137q0 12 8.5 20.5t20.5 8.5t20.5 -8.5t8.5 -20.5q0 -80 3 -137h26q9 52 23 98q16 51 25 71h-152v4h154q3 6 7 12q19 32 46 38q34 7 64 -30q7 -8 12 -20h63q31 60 76 86q32 18 60 5q23 -11 37 -41
q10 -20 16 -50h111v-4h-110q6 -29 9 -68q4 -44 4 -101h97v-4h-97q0 -23 -0.5 -47t-1 -41.5t-0.5 -19.5q0 -3 -2 -65h103v-4h-103q-2 -102 8 -161h99v-12h-100q-4 -18 -23 -22q-11 -1 -20.5 5t-12.5 17h-498v12h496q-9 61 -7 161h-154q-3 -42 -5 -62q-3 -36 -7 -55
q-3 -14 -7 -22q-4 -9 -12 -14q-16 -11 -33 -2q-4 3 -7.5 6.5t-4.5 6.5l-1 3q-1 2 -2 5q0 3 -1 6q-1 6 -1 14q-1 14 -2 38q0 10 -0.5 20.5t-1 18t-0.5 14.5v6v17h-102v-3q1 -47 1 -63q-1 -37 -7 -54q-8 -20 -24 -26q-20 -8 -39 7q-7 4 -11 13q-1 3 -2 7q-2 6 -5 16
q-4 16 -9 41l-12 62h-37v4h37q-1 2 -1 3q-1 8 -2 26q-1 16 -2 23q-3 26 -4 37l-2 3l-1 8v3l-4 48q-1 12 -1 22h-22z" />
    <glyph glyph-name="n" unicode="n" 
d="M183 172q-4 -22 -8 -51q-1 -2 -3.5 -30t-5.5 -47t-7 -33l195 -1q21 134 24 161zM226 352l151 -1v1q-4 38 -17 73.5t-30 51.5q-12 11 -22 7q-22 -9 -49 -57q-18 -34 -33 -75zM164 349h-64q1 -5 22 -173h3q16 103 39 173zM225 349q-24 -69 -42 -173l195 -1q2 19 2 36
q2 89 -2 136zM123 166l1 6h-1h-1zM0 699v4h451v-4h-451zM96 491q-3 -62 4 -138h65q19 56 44 102t52 67l-259 1v4l264 -1q10 7 20 11q39 16 75 -11h89v-4h-84l3 -3q27 -25 44 -70t22 -91v-7h16v-4h-15q4 -49 2 -138q0 -16 -2 -34h14v-4h-14q-3 -39 -24 -161h40v-12h-42
q-2 -11 -11.5 -18t-21.5 -5q-20 4 -23 23l-198 1l-1 -4q-5 -13 -10 -22q-10 -15 -26 -19q-13 -4 -24 3q-12 5 -16 18q-4 9 -3 23v2h-76v12h78v1v6q-2 19 -5 60.5t-6 63.5q-1 14 -3 30h-61v4h60q-19 148 -21 173h-41v4h40q-6 77 -3 141q1 12 10 20t21 7t20 -10t7 -21z" />
    <glyph glyph-name="o" unicode="o" 
d="M355 171l-276 2q1 -36 11 -63q22 -63 87 -73t111 27t67 107zM365 348l-251 1q-17 -42 -26 -84q-10 -47 -9 -88l277 -2q9 30 12 64q6 55 -3 109zM238 518q-42 -23 -83 -87q-23 -37 -40 -78l249 -1q-7 34 -19 63q-33 80 -97 97q-6 2 -10 6zM0 699v4h451v-4h-451zM1 350v4
h52q22 58 53 108q22 35 46 61h-150v4h154q36 36 73 50q13 5 32 5l11 -1h9q12 1 20.5 -7.5t9.5 -20.5v-6q14 -9 27 -21h112v-4h-108q35 -33 57 -85q16 -39 24 -86h28v-4h-27q8 -56 2 -114q-3 -29 -10 -58h34v-4h-35q-29 -110 -100 -160l137 -1v-12l-157 1q-55 -31 -126 -20
q-34 5 -61 21h-108v12h90q-37 28 -55 78q-13 37 -14 83h-18v4h18q-1 47 10 100q8 36 21 73h-51z" />
    <glyph glyph-name="p" unicode="p" 
d="M381 347l-286 2q1 -113 0 -156v-16l210 -1q71 62 77 133q2 20 -1 38zM96 474q-1 -46 -1 -121l286 -2q-13 80 -89 121q-45 23 -96.5 24t-99.5 -22zM93 80q93 10 179 69q15 11 29 23l-206 1q-1 -37 -2 -93zM0 699v4h451v-4h-451zM1 350v4h36q0 107 2 169h-37v4h38v9
q1 12 9.5 20.5t20.5 7.5q11 -1 19 -8.5t9 -17.5q54 19 110 16t104 -28h138v-4h-130q49 -26 81 -70.5t38 -100.5h12v-4h-11q2 -21 0 -44q-6 -67 -55 -128h65v-4h-68q-32 -38 -77 -69q-103 -71 -214 -80v-10l361 -2v-12l-361 2q-4 -150 -4 -242q0 -12 -8.5 -20.5t-20.5 -8.5
t-20.5 8.5t-8.5 20.5q0 92 4 242h-33v12h33q3 131 4 161h-34v4h34v18q1 42 0 155h-36z" />
    <glyph glyph-name="q" unicode="q" 
d="M321 172l-250 1q0 -16 1 -30q5 -53 44 -89q35 -32 68 -31q28 2 58 28q45 41 79 121zM348 95q-30 -52 -64 -84l60 -1q2 38 3 60q1 13 1 25zM350 217q0 51 -1 131l-225 1q-27 -44 -39 -83q-13 -40 -14 -89l252 -1q5 11 9 23q4 13 18 18zM348 444q-25 39 -55 44
q-33 5 -77 -29q-48 -37 -90 -106l223 -1q0 10 -0.5 28.5t-0.5 33.5v30zM0 699v4h451v-4h-451zM1 350v4h59q51 97 120 151q13 10 26 18h-204v4h211q46 25 89 18q24 -4 45 -17v12q0 12 8.5 20.5t20.5 8.5t20.5 -8.5t8.5 -20.5v-14h45v-4h-45v-62l8 -14q10 -20 -7 -35l1 -60h44
v-4h-44q2 -106 1 -172h42v-4h-42q-1 -55 -3 -103q-1 -24 -3 -58h50v-12h-51q-4 -62 -5.5 -88.5t-0.5 -74t7 -84.5q2 -12 -5.5 -22t-19 -12t-21.5 5.5t-12 18.5q-13 84 -1 257l-73 1q-41 -32 -83 -34q-50 -2 -97 35h-90v12h76q-55 51 -62 125q-1 17 -1 36h-10v4h10
q1 58 16 107q10 30 28 66h-56z" />
    <glyph glyph-name="r" unicode="r" 
d="M114 208q23 66 64 141h-76zM0 699v4h451v-4h-451zM1 350v4h43q-6 85 -5 154q0 8 5 15h-42v4h45q9 9 22 9q12 0 20 -9l226 -1q18 7 34 1v-1h101v-4h-94q16 -10 21 -34q5 -20 3 -54q-1 -12 -9.5 -20.5t-20.5 -7.5t-20.5 9.5t-7.5 20.5q1 14 0 25l-3 -4q-28 -31 -72 -105
l204 -1v-4l-206 1q-55 -94 -80 -172l285 -1v-4l-286 1q-8 -23 -13 -46q-1 -6 -5 -60q-2 -26 -3 -38q-2 -11 -3 -17l312 -1v-12l-315 1q0 -1 -1 -1q-4 -10 -14 -15q-16 -7 -30 4q-9 7 -9 12v1h-83v12h79q-1 4 -1 8q-3 18 -7 45q-5 44 -11 108h-57v4h56l-1 11q-12 134 -14 162
h-43zM97 506q-1 -67 5 -153h79l15 27q48 81 80 117q15 16 28 24l3 1l-215 1q5 -8 5 -17z" />
    <glyph glyph-name="s" unicode="s" 
d="M0 699v4h451v-4h-451zM330 439q-23 27 -61.5 39t-76.5 5q-37 -6 -59 -27t-23 -55q-1 -23 33 -48l308 -2v-4l-302 2l8 -5q29 -18 124 -59q90 -39 120 -66q23 -20 29 -44h20v-4h-18q0 -3 1 -5q5 -33 -20 -66q-26 -36 -97 -72q-18 -9 -36 -17l172 -1v-12l-203 1
q-36 -13 -69 -19q-83 -16 -125 14q-4 3 -7 6h-48v12h37q-29 41 -1 116q4 11 15 16t22 1t16 -15t1 -22q-20 -53 -1 -67q21 -16 80 -4.5t121 42.5q58 30 77 55q10 14 8 23q-1 6 -8 14l-364 2v4l360 -2l-1 1q-24 22 -103 56q-105 45 -133 63q-41 26 -59 55h-66v4h64
q-14 23 -13 49q2 82 76 120h-126v4h134q22 10 47 14q63 10 121 -15h146v-4h-137q36 -17 61 -45q8 -9 7 -21t-10 -20t-21 -7t-20 10z" />
    <glyph glyph-name="t" unicode="t" 
d="M1 350v4h1q-2 4 -3 9q-1 12 6.5 21.5t19.5 10.5q34 3 74 12q-4 73 -4 116h-93v4h92q-1 99 10 172h-104v4h105q8 48 21 90q4 11 15 16.5t22 2t16.5 -14.5t2.5 -22q-11 -34 -18 -72h287v-4h-288q-12 -72 -10 -172l297 -1v-4l-297 1q0 -39 3 -102q27 7 82 23l86 24
q11 3 21.5 -3t13.5 -17.5t-3 -22t-18 -13.5l-86 -24q-60 -18 -93 -26l1 -9l291 -2v-4l-291 2q1 -14 1 -27q4 -114 6 -146l283 -1v-4l-282 1q0 -10 1 -19q8 -84 26 -117q8 -14 16 -17q9 -3 24 3q50 21 135 127q8 10 20 11t21.5 -6.5t10.5 -19.5t-6 -21q-53 -66 -95 -102
l131 -1v-12l-146 1q-26 -21 -49 -31q-37 -15 -67 -3q-24 9 -40 34l-150 1v12l143 -1q-23 44 -32 137l-2 25h-106v4h106q-2 32 -6 143q0 13 -1 28q-38 -7 -71 -11q-17 -2 -27 13h-3z" />
    <glyph glyph-name="u" unicode="u" 
d="M280 172l-175 1q15 -99 47 -118q21 -13 62 27q33 33 66 90zM341 322v26l-252 1v-7q2 -53 12 -140q1 -13 3 -25l178 -1q41 73 59 146zM337 156q-39 -73 -82 -115q-19 -19 -37 -30l148 -1q-26 58 -29 146zM0 699v4h451v-4h-451zM1 350v4h30q-5 113 4 167q1 1 1 2h-34v4h35
q4 9 13 14t19 4q16 -3 22 -18l269 -1q10 5 22 2l4 -2h64v-4h-58q5 -4 9 -11q2 -4 3 -10q2 -8 3 -19q2 -18 2 -47q0 -54 -2 -75q-1 -4 -1 -9h45v-4h-46q-2 -16 -6 -33q-1 -17 -2 -50q-3 -57 -2 -86v-3h55v-4h-55q1 -92 27 -144q4 -8 3 -17h27v-12h-32q-4 -6 -11 -10
q-10 -5 -20.5 -2t-16.5 12l-179 1q-32 -11 -60 0l-133 1v12h113q-49 38 -67 161h-43v4h43q-2 9 -3 19q-10 88 -12 144v10h-30zM93 511q-9 -47 -4 -158l252 -1q-3 72 -3 79q0 32 1 51q1 12 2.5 19.5t5.5 13.5q2 4 7 7l-262 1q2 -6 1 -12z" />
    <glyph glyph-name="v" unicode="v" 
d="M289 172h-159q18 -62 38 -95q18 -30 30 -27q23 4 56 56q17 28 35 66zM352 348l-259 1q16 -98 35 -168l1 -5h162q13 31 27 68q18 49 34 104zM0 699v4h451v-4h-451zM1 350v4h33l-4 25q-5 33 -5 38q-1 1 -1.5 3t-2.5 6t-4 9q-11 27 1 47q7 13 21 16q13 4 26 -5q7 -5 13 -16
l5 -9q2 -3 2.5 -4t1.5 -2q8 -9 7 -21t-10 -20q-1 0 -1 -1q0 -2 5 -33l5 -34l260 -1q30 102 35 156q1 8 6 14l-392 1v4l395 -1q10 9 23 8q10 -1 17 -8h13v-4h-10q7 -9 6 -20q-5 -53 -33 -151h38v-4h-39q-18 -65 -39 -123l-19 -49h96v-4h-98q-24 -56 -49 -95q-27 -44 -55 -65
l204 -1v-12l-223 1q-11 -5 -21 -7q-23 -4 -44 7l-164 1v12l147 -1q-16 14 -29 36q-25 42 -46 119l-2 7h-67v4h66q-19 72 -34 173h-34z" />
    <glyph glyph-name="w" unicode="w" horiz-adv-x="641" 
d="M304 173l-1 -3q-22 -86 -41 -131q-6 -15 -13 -27h189q-24 28 -50 73q-25 44 -45 88h-39zM292 350h-193q15 -61 49 -173h97l2 8q6 20 17 65t17 65q5 20 11 35zM561 350h-190q2 -15 3 -35q0 -4 1 -47q1 -20 1 -22q4 -19 29 -69h129q21 128 27 173zM193 30q8 12 15 31
q16 39 36 112h-95l19 -63q16 -56 19 -62q3 -10 6 -18zM504 28q4 9 8 24q4 13 11 63l10 58h-126q15 -31 31 -59q27 -45 48 -69q10 -12 18 -17zM320 234l-15 -57h36q-17 38 -21 57zM0 699v4h646v-4h-646zM1 350v4h37q-16 68 -25 128q-1 12 6 21.5t19 11t21.5 -5.5t11.5 -19
q9 -62 27 -136h195q1 4 3 8q4 11 8 18q8 13 18 18q20 10 35 -6q6 -5 9 -14q2 -7 4 -18q0 -3 1 -6h191q11 86 11 154q0 8 4 15h-575v4h578q9 10 22 10t22 -10h24v-4h-21q4 -7 4 -15q0 -69 -11 -154h28v-4h-28q-7 -53 -27 -173h57v-4h-58q-7 -42 -11 -68q-9 -51 -13 -67
q-3 -15 -8 -26h94v-12h-99l-1 -2q-16 -28 -41 -31q-19 -2 -40 12q-12 8 -25 21h-205q-4 -5 -7 -10q-20 -26 -44 -29q-17 -2 -31 12q-6 6 -12 17q-3 4 -6 10h-143v12h138q-3 8 -6 17q-1 4 -20 65l-24 79h-85v4h84q-32 107 -48 173h-38z" />
    <glyph glyph-name="x" unicode="x" 
d="M211 172q-77 -118 -102 -160l221 -1q-55 59 -118 161h-1zM213 283q22 35 38 65l-79 1zM0 699v4h451v-4h-451zM89.5 488.5q3.5 -11.5 7.5 -21.5t11 -21l11 -18q4 -7 15 -22t15 -22l21 -31l83 -1q50 92 71 170l-322 1v4l323 -1l6 26q2 11 12 18t21.5 4.5t18.5 -12.5t4 -22
q-1 -7 -3 -14h66v-4h-67q-18 -80 -64 -170l132 -1v-4l-134 1q-23 -44 -55 -96l-16 -25l32 -51l172 -1v-4l-169 1q54 -85 108 -138q9 -10 8 -24h55v-12h-59l-4 -6q-9 -8 -21 -8t-21 8l-5 6l-240 2l-4 -7q-6 -11 -17.5 -14t-21.5 3q-11 6 -14 18h-45v12h44q1 5 4 9
q29 52 94 151l-139 1v4l142 -1l33 52q-52 87 -75 121l-102 1v4l99 -1q-2 4 -14 20.5t-16 23.5l-12 21q-9 14 -14.5 27t-9.5 27q-3 11 2.5 21.5t17 14t22 -2t14 -17z" />
    <glyph glyph-name="y" unicode="y" 
d="M276 172h-154l5 -17q15 -53 35 -79q15 -20 28 -21q12 -2 29 15q23 23 45 74q6 13 12 28zM338 171l-20 -51q-27 -60 -58 -91q-11 -11 -22 -18h77q10 44 18 97q5 31 9 63h-4zM330 352l6 37q9 52 14 107q2 14 3 26l-283 1q19 -168 19 -170zM329 348l-239 1l6 -42
q13 -84 25 -131h157q32 81 51 172zM344 188l-4 -13h3zM0 699v4h451v-4h-451zM1 350v4h30l-11 94q-7 61 -9 75h-9v4h9l-2 13q-1 11 6.5 20.5t19 11t21 -6t11.5 -19.5l2 -19l284 -1v3l1 9v2v2v1q1 2 1 3q1 3 2 5q2 4 4 7q9 10 22 10q8 0 14.5 -4t8.5 -8l3 -4l2 -6q1 -2 1 -4
v-5q1 -4 1 -11h37v-4h-37q0 -15 1 -40v-131h37v-4h-37q0 -68 -13 -172h49v-4h-49q-5 -37 -11 -72q-7 -48 -16 -89h78v-12h-81q-22 -99 -50 -143q-26 -41 -78 -75q-68 -44 -118 -23q-13 6 -24 22q-3 3 -4.5 5.5t-2.5 3.5t-2 3q-8 9 -7 21t10 20t21 7t20 -10q1 -1 12 -17l2 -2
q21 -8 61 19q41 26 60 56q22 35 41 114h-101q-13 -4 -27 -2q-7 1 -13 2l-171 1v12l146 -1q-17 12 -31 31q-26 35 -44 97q-5 16 -9 34h-59v4h58q-12 50 -23 122q-3 24 -7 51h-30z" />
    <glyph glyph-name="z" unicode="z" 
d="M0 699v4h451v-4h-451zM72 474q80 11 164 37q17 5 43 11l-277 1v4l293 -1q17 5 34 8q37 7 59 7q16 0 27 -2q14 -4 23 -13h12v-4h-9q2 -2 3 -5q6 -13 1 -29q-3 -8 -8 -18q-9 -17 -26 -44l-51 -74l91 -1v-4l-94 1l-29 -41l-99 -131l221 -1v-4l-224 1l-42 -54l-51 -66
q-19 -25 -29 -40l26 -1q6 2 13 3q20 5 83 23q130 36 176 36q12 0 20.5 -8.5t8.5 -20.5t-8.5 -20.5t-20.5 -8.5q-16 0 -41 -5h91v-12l-144 1l-66 -18q-83 -22 -86 -23q-45 -11 -64 -8q-17 4 -33.5 15.5t-19.5 32.5q-1 1 -1 2h-38v12h39q0 2 1 4q2 4 4 9q4 7 11 18
q11 17 31 44l52 67l15 18l-150 1v4l153 -1l125 166l5 6l-285 2v4l287 -2q48 65 74 106l16 24q-16 -1 -38 -5q-42 -8 -88 -22q-88 -26 -172 -39q-12 -1 -21.5 6t-11 19t5.5 21.5t19 11.5z" />
    <glyph glyph-name="braceleft" unicode="{" 
d="M317 720h-20h-1q-8 -6 -16 -17h171v-4h-173q-22 -35 -38 -107l-13 -66h223v-4h-223l-4 -23q-10 -67 -13 -78q-7 -39 -22 -68l263 -2v-4l-265 2q-17 -31 -44 -56l-6 -5q67 -33 89 -86q5 -12 8 -26l217 -1v-4l-216 1q5 -19 7.5 -41.5t2.5 -41.5t0.5 -40.5t0.5 -37.5l207 -1
v-12l-207 1v-6q3 -49 18 -74q17 -30 60 -42q11 -3 17 -13.5t3 -22t-13.5 -17.5t-22.5 -3q-65 18 -94 69q-22 37 -26 100v9l-187 1v12l186 -1v45v41q0 19 -3 39t-9 36l-171 1v4l170 -1l-2 4q-16 39 -86 67q-2 0 -12 1q-11 2 -19 6q-18 11 -18 31q0 21 19 31q7 4 19 6h9
q10 5 21 15l12 12l-115 1v4l118 -1q25 30 35 80q1 9 12 75l2 15h-166v4h167q7 45 15 78q12 57 29 94h-213v4h215q21 47 51 67q13 9 32 8h7h3h3q12 1 21.5 -6.5t10.5 -19.5t-6.5 -21.5t-19.5 -10.5z" />
    <glyph glyph-name="bar" unicode="|" 
d="M1 350v4l118 -1q-3 79 -5 170h-112v4h112q-1 75 -1 172h-113v4h113v18q0 12 8.5 20.5t20.5 8.5t20.5 -8.5t8.5 -20.5v-9v-9h280v-4h-280q0 -97 1 -172l278 -1v-4l-278 1q2 -91 5 -170l274 -2v-4l-274 2q3 -91 9 -173l264 -1v-4l-263 1q5 -70 12 -136q1 -15 -10 -25
l263 -1v-12l-452 2v12l151 -1q-9 8 -10 19q-7 69 -13 142l-125 1v4l125 -1q-6 83 -9 173z" />
    <glyph glyph-name="braceright" unicode="}" 
d="M1 350v4l183 -1q-3 15 -1 37q2 21 14 101q2 18 4 32h-199v4h200q4 35 3 60q-2 80 -57 112h-148v4h140q-8 4 -18 8q-11 4 -16 14.5t-1 22t14.5 16.5t22.5 1q57 -20 87 -62h222v-4h-219q30 -43 31 -110q1 -27 -3 -63h190v-4h-190q-2 -16 -6 -39q-12 -78 -13 -97
q-3 -27 2 -32l2 -2l206 -1v-4l-198 1l2 -1q16 -10 26 -25q10 -16 7 -42q-2 -13 -8 -36q-12 -44 -11 -55q1 -6 2 -13l179 -1v-4l-179 1q3 -22 15 -86q10 -48 9 -75l157 -1v-12l-158 1q-5 -42 -32.5 -79t-87.5 -83q-10 -7 -22 -5.5t-19 11t-5.5 21.5t10.5 19q52 41 72 65
q21 27 25 51l-235 1v12l237 -1q1 21 -8 64q-13 70 -16 97l-210 1v4l209 -1l-1 7q-2 20 13 76q5 19 6 28q1 4 0 6t-4 4q-18 10 -19 11q-18 14 -23 41z" />
    <glyph glyph-name="asciitilde" unicode="~" 
d="M452 -2l-452 2v12l452 -2v-12zM450 171l-447 2v4l447 -2v-4zM306 348l-146 1l6 -5q7 -6 22 -20l27 -24q11 -10 22 -17q31 -21 46 -14q5 2 11 20q7 20 11 55zM2 523v4l448 -1v-4zM0 699v4h451v-4h-451zM39 261q0 46 7 72q2 9 6 17h-51v4h53q9 17 26 23q22 9 49 -6
q12 -6 26 -18l151 -1q4 37 4 100q0 12 8.5 20.5t20.5 8.5t20.5 -8.5t8.5 -20.5q0 -62 -3 -100l86 -1v-4l-87 1q0 -6 -1 -11q-5 -41 -14 -67q-14 -40 -40 -53q-46 -23 -105 18l-26 20q-13 11 -29.5 26.5t-20.5 18.5q-16 14 -26 20v-2q-5 -18 -5 -57q0 -12 -8.5 -20.5
t-20.5 -8.5t-20.5 8.5t-8.5 20.5z" />
    <glyph glyph-name="agrave" unicode="&#xe0;" 
d="M272 172l-202 1q-6 -48 11 -80q18 -36 61 -31q43 4 76 37q29 30 54 73zM313 465q-79 -20 -155 -112l149 -1q1 55 5 102q1 5 1 11zM314 273q-5 37 -7 72v3l-152 1l-8 -10q-64 -83 -76 -162l203 -1q24 45 40 97zM334 166q-32 -65 -74 -107q-33 -33 -78 -48l193 -1
q-27 97 -41 156zM0 699v4h133l-29 30q-8 8 -7 20t9.5 20.5t20.5 7.5t21 -10q31 -34 73 -68h230v-4h-225q20 -16 42 -31l53 -38l46 -31q10 -7 12 -19t-5 -22t-19 -12t-22 5q-12 9 -47 33l-54 38q-18 13 -45.5 35t-49.5 42h-137zM1 350v4l85 -1q7 11 15 21q42 55 96 96t108 52
l-303 1v4l332 -1h4q10 5 21 2q3 -1 5 -2h86v-4h-71q17 -4 30 -22q2 -3 3.5 -5.5t2 -3.5t1.5 -1l1 -2q8 -9 7.5 -21t-8.5 -20q-10 -9 -22 -8q2 -41 -3 -88h60v-4h-61q-5 -39 -16 -78q6 -44 18 -94h58v-4h-57q13 -56 42 -158q0 -1 1 -3h16v-12h-17q-4 -16 -20 -21
q-12 -3 -22.5 2.5t-13.5 17.5v1l-379 2v12h88q-38 15 -59 53q-24 46 -17 108h-9v4h9q11 83 71 172z" />
    <glyph glyph-name="acircumflex" unicode="&#xe2;" 
d="M272 172l-202 1q-6 -48 11 -80q18 -36 61 -31q43 4 76 37q29 30 54 73zM313 465q-79 -20 -155 -112l149 -1q1 55 5 102q1 5 1 11zM314 273q-5 37 -7 72v3l-152 1l-8 -10q-64 -83 -76 -162l203 -1q24 45 40 97zM334 166q-32 -65 -74 -107q-33 -33 -78 -48l193 -1
q-27 97 -41 156zM279 709l-5 -6h8zM1 350v4l85 -1q7 11 15 21q42 55 96 96t108 52l-303 1v4h101q-11 6 -14 17.5t3 21.5q34 62 98 133h-190v4h193l49 51l2 3q5 8 6 10q18 27 45 20q23 -6 31 -34q1 -5 2 -8t1 -4t0.5 -2t0.5 -2l18 -34h103v-4h-101q23 -41 49 -78
q7 -9 5.5 -21t-11 -19t-21.5 -5.5t-19 11.5q-37 50 -69 112h-13q-7 -7 -24 -26l-25 -27l-21 -26q-14 -16 -22.5 -27t-18.5 -26t-18 -29q-4 -7 -11 -11l203 -1h4q10 5 21 2q3 -1 5 -2h86v-4h-71q17 -4 30 -22q2 -3 3.5 -5.5t2 -3.5t1.5 -1l1 -2q8 -9 7.5 -21t-8.5 -20
q-10 -9 -22 -8q2 -41 -3 -88h60v-4h-61q-5 -39 -16 -78q6 -44 18 -94h58v-4h-57q13 -56 42 -158q0 -1 1 -3h16v-12h-17q-4 -16 -20 -21q-12 -3 -22.5 2.5t-13.5 17.5v1l-379 2v12h88q-38 15 -59 53q-24 46 -17 108h-9v4h9q11 83 71 172z" />
    <glyph glyph-name="atilde" unicode="&#xe3;" 
d="M272 172l-202 1q-6 -48 11 -80q18 -36 61 -31q43 4 76 37q29 30 54 73zM343 699h-182q10 -4 23 -11q74 -37 82 -40q31 -12 43 -3q6 6 14 20q16 28 20 34zM313 465q-79 -20 -155 -112l149 -1q1 55 5 102q1 5 1 11zM314 273q-5 37 -7 72v3l-152 1l-8 -10q-64 -83 -76 -162
l203 -1q24 45 40 97zM334 166q-32 -65 -74 -107q-33 -33 -78 -48l193 -1q-27 97 -41 156zM0 699v4h75q8 5 19 8q24 5 58 -8h194q7 8 18 9t20 -6q2 -1 4 -3h63v-4h-60q11 -17 -1 -33q-2 -2 -16 -29q-13 -24 -29 -36q-37 -31 -99 -8q-14 5 -28 13l-35 18q-20 10 -25 12
q-40 21 -52 18l-5 -8q-3 -11 -4 -31q0 -12 -9 -20t-21 -8t-20 9t-8 21q2 59 30 82h-69zM1 350v4l85 -1q7 11 15 21q42 55 96 96t108 52l-303 1v4l332 -1h4q10 5 21 2q3 -1 5 -2h86v-4h-71q17 -4 30 -22q2 -3 3.5 -5.5t2 -3.5t1.5 -1l1 -2q8 -9 7.5 -21t-8.5 -20
q-10 -9 -22 -8q2 -41 -3 -88h60v-4h-61q-5 -39 -16 -78q6 -44 18 -94h58v-4h-57q13 -56 42 -158q0 -1 1 -3h16v-12h-17q-4 -16 -20 -21q-12 -3 -22.5 2.5t-13.5 17.5v1l-379 2v12h88q-38 15 -59 53q-24 46 -17 108h-9v4h9q11 83 71 172z" />
    <glyph glyph-name="adieresis" unicode="&#xe4;" 
d="M272 172l-202 1q-6 -48 11 -80q18 -36 61 -31q43 4 76 37q29 30 54 73zM313 465q-79 -20 -155 -112l149 -1q1 55 5 102q1 5 1 11zM314 273q-5 37 -7 72v3l-152 1l-8 -10q-64 -83 -76 -162l203 -1q24 45 40 97zM334 166q-32 -65 -74 -107q-33 -33 -78 -48l193 -1
q-27 97 -41 156zM0 699v4h451v-4h-451zM1 350v4l85 -1q7 11 15 21q42 55 96 96t108 52l-303 1v4l332 -1h4q10 5 21 2q3 -1 5 -2h86v-4h-71q17 -4 30 -22q2 -3 3.5 -5.5t2 -3.5t1.5 -1l1 -2q8 -9 7.5 -21t-8.5 -20q-10 -9 -22 -8q2 -41 -3 -88h60v-4h-61q-5 -39 -16 -78
q6 -44 18 -94h58v-4h-57q13 -56 42 -158q0 -1 1 -3h16v-12h-17q-4 -16 -20 -21q-12 -3 -22.5 2.5t-13.5 17.5v1l-379 2v12h88q-38 15 -59 53q-24 46 -17 108h-9v4h9q11 83 71 172zM174 613q0 -12 -8.5 -20.5t-20.5 -8.5t-20.5 8.5t-8.5 20.5t8.5 20.5t20.5 8.5t20.5 -8.5
t8.5 -20.5zM350 605q0 -12 -8.5 -20.5t-20.5 -8.5t-20.5 8.5t-8.5 20.5t8.5 20.5t20.5 8.5t20.5 -8.5t8.5 -20.5z" />
    <glyph glyph-name="egrave" unicode="&#xe8;" 
d="M353 171l-292 2q4 -47 24 -78q35 -52 112 -43q49 6 80 31q30 24 63 77q5 8 13 11zM97 353l280 -2q3 20 -3 45t-20 45q-21 29 -50 43t-57 7q-46 -11 -85 -48t-65 -90zM0 699v4h147l-33 34q-8 9 -7.5 21t9 20t20.5 7.5t20 -8.5q38 -41 80 -74h215v-4h-210q50 -39 105 -65
q11 -5 15 -16.5t-1 -22t-16.5 -14.5t-21.5 1q-92 43 -171 117h-151zM1 350v4h33q48 117 138 169h-170v4h177q26 13 54 20q59 14 114 -21h103v-4h-97q28 -19 48 -47q43 -60 34 -124h16v-4h-17q-5 -28 -21 -52q-5 -8 -16 -14q-6 -2 -14 -5q-13 -4 -35 -9q-36 -8 -97 -20
q-28 -5 -66 -11t-62 -10.5t-32 -5.5q-18 -4 -29 11q-4 -28 -2 -54l390 -2v-4h-73q2 0 3 -1q10 -7 13 -18.5t-3 -21.5q-27 -45 -55.5 -74t-66.5 -45l184 -1v-12l-221 1q-13 -3 -28 -5q-43 -5 -80 5l-123 1v12h93q-34 18 -56 52q-46 69 -33 178q7 55 28 108h-31zM79 276
q8 2 33 6l62 10l67 12q60 11 94 19l30 8q3 1 4 2q5 6 7 15l-281 1q-17 -37 -27 -77q5 3 11 4z" />
    <glyph glyph-name="eacute" unicode="&#xe9;" 
d="M353 171l-292 2q4 -47 24 -78q35 -52 112 -43q49 6 80 31q30 24 63 77q5 8 13 11zM97 353l280 -2q3 20 -3 45t-20 45q-21 29 -50 43t-57 7q-46 -11 -85 -48t-65 -90zM1 350v4h33q48 117 138 169h-170v4h177q26 13 54 20q59 14 114 -21h103v-4h-97q28 -19 48 -47
q43 -60 34 -124h16v-4h-17q-5 -28 -21 -52q-5 -8 -16 -14q-6 -2 -14 -5q-13 -4 -35 -9q-36 -8 -97 -20q-28 -5 -66 -11t-62 -10.5t-32 -5.5q-18 -4 -29 11q-4 -28 -2 -54l390 -2v-4h-73q2 0 3 -1q10 -7 13 -18.5t-3 -21.5q-27 -45 -55.5 -74t-66.5 -45l184 -1v-12l-221 1
q-13 -3 -28 -5q-43 -5 -80 5l-123 1v12h93q-34 18 -56 52q-46 69 -33 178q7 55 28 108h-31zM79 276q8 2 33 6l62 10l67 12q60 11 94 19l30 8q3 1 4 2q5 6 7 15l-281 1q-17 -37 -27 -77q5 3 11 4zM131 610l95 78l13 11h-239v4h244q41 35 70 65q9 8 21 8t20.5 -8.5t8.5 -20.5
t-8 -21l-25 -23h120v-4h-124l-64 -56l-94 -77q-9 -8 -21 -7t-20 10t-7 21t10 20z" />
    <glyph glyph-name="ecircumflex" unicode="&#xea;" 
d="M353 171l-292 2q4 -47 24 -78q35 -52 112 -43q49 6 80 31q30 24 63 77q5 8 13 11zM97 353l280 -2q3 20 -3 45t-20 45q-21 29 -50 43t-57 7q-46 -11 -85 -48t-65 -90zM0 699v4h175q31 29 54 54l5 11q5 10 12 16q17 14 37 6q25 -12 22 -45l-1 -10q4 -15 13 -32h134v-4h-132
q24 -49 54 -75q9 -8 10 -20t-7 -21t-20 -10t-21 7q-50 43 -80 119h-1l-44 -42q-22 -21 -57 -51l-44 -38q-9 -8 -21 -7t-20 10t-7 21t10 20l100 87h-171zM1 350v4h33q48 117 138 169h-170v4h177q26 13 54 20q59 14 114 -21h103v-4h-97q28 -19 48 -47q43 -60 34 -124h16v-4
h-17q-5 -28 -21 -52q-5 -8 -16 -14q-6 -2 -14 -5q-13 -4 -35 -9q-36 -8 -97 -20q-28 -5 -66 -11t-62 -10.5t-32 -5.5q-18 -4 -29 11q-4 -28 -2 -54l390 -2v-4h-73q2 0 3 -1q10 -7 13 -18.5t-3 -21.5q-27 -45 -55.5 -74t-66.5 -45l184 -1v-12l-221 1q-13 -3 -28 -5
q-43 -5 -80 5l-123 1v12h93q-34 18 -56 52q-46 69 -33 178q7 55 28 108h-31zM79 276q8 2 33 6l62 10l67 12q60 11 94 19l30 8q3 1 4 2q5 6 7 15l-281 1q-17 -37 -27 -77q5 3 11 4z" />
    <glyph glyph-name="quoteleft" unicode="&#x2018;" 
d="M452 -2l-452 2v12l452 -2v-12zM450 171l-447 2v4l447 -2v-4zM0 699v4h132l21 43q5 10 16.5 14t22 -1t14.5 -16.5t-1 -22.5l-8 -17h254v-4h-256q-53 -110 -60 -172l315 -1v-4l-315 1q-3 -27 0 -52q1 -11 -6.5 -20.5t-19 -11t-21 6t-11.5 19.5q-3 28 -1 58h-74v4h75
q7 71 54 172h-131zM1 350v4l450 -3v-4z" />
    <glyph glyph-name="quoteright" unicode="&#x2019;" 
d="M452 -2l-452 2v12l452 -2v-12zM450 171l-447 2v4l447 -2v-4zM0 699v4h162q0 11 -1 22t7 20.5t19.5 10.5t21 -7t10.5 -20q1 -13 1 -26h231v-4h-231q1 -79 -32 -172l262 -1v-4l-264 1q-10 -29 -27 -69q-5 -11 -16 -15.5t-22 0t-15.5 15.5t-0.5 22q12 27 19 47h-122v4h124
q37 97 36 172h-162zM1 350v4l450 -3v-4z" />
    <glyph glyph-name="quotedblleft" unicode="&#x201c;" 
d="M452 -2l-452 2v12l452 -2v-12zM450 171l-447 2v4l447 -2v-4zM260 699h-81l-18 -56q-12 -37 -19.5 -64t-11.5 -52h62q16 71 68 172zM0 699v4h119l10 34q3 11 13.5 17t22 3t17.5 -13.5t3 -22.5l-5 -18h82l32 62q6 11 17.5 14.5t22 -2t14 -17t-1.5 -21.5l-19 -36h124v-4
h-126q-58 -111 -74 -173h199v-4h-200q-7 -26 -9 -55q-1 -12 -10 -20t-21 -7t-20 10t-7 21q2 27 8 52h-62q-4 -26 -5 -50q0 -12 -9 -20t-21 -8t-20 9t-8 21q1 23 4 48h-68v4h69q3 21 9.5 47t10.5 39l15 47q10 34 12 39h-118zM1 350v4l450 -3v-4z" />
    <glyph glyph-name="quotedblright" unicode="&#x201d;" 
d="M452 -2l-452 2v12l452 -2v-12zM450 171l-447 2v4l447 -2v-4zM270 699h-94q1 -29 -3.5 -62t-9.5 -53t-15 -57h72q31 87 50 172zM0 699v4h117q-1 19 -6 39q-3 12 3 22t18 13t22 -3t13 -18q7 -26 8 -53h96q7 33 12 65q2 12 12 19t22 5t19 -12t5 -22q-5 -27 -11 -55h121v-4
h-122q-18 -85 -48 -173h169v-4h-170l-27 -73q-4 -11 -15 -15.5t-22.5 -0.5t-16 15t-0.5 23q10 26 19 52h-71l-9 -31q-3 -12 -13.5 -18t-22 -3t-17.5 13.5t-3 21.5l4 17h-84v4h86q1 5 5.5 20.5t5.5 20.5t5 19.5t4.5 19t4 19t3 18t2 18t1 18.5t-0.5 19h-118zM1 350v4l450 -3
v-4z" />
    <glyph glyph-name="uni3000" unicode="&#x3000;" horiz-adv-x="1000" 
 />
  </font>
</defs>
</svg>
